<svg preserveAspectRatio="xMidYMid meet" overflow="visible" style="display: block;" viewBox="0 0 1279 165.185" fill="none" xmlns="http://www.w3.org/2000/svg">
<g id="beausejour-logo">
<path id="Vector" d="M61.3068 29.2611H0.990862V162.872H63.6666C98.2138 162.872 108.314 145.551 108.314 125.823C108.314 108.833 98.5441 97.4115 84.0079 93.0223C95.5708 87.6892 102.32 77.5894 102.32 64.7522C102.32 42.8063 86.7452 29.2611 61.3068 29.2611ZM57.3896 52.8117C71.3123 52.8117 75.7015 59.5135 75.7015 67.348C75.7015 75.1824 69.8964 83.3473 57.3896 83.3473H32.3759V52.8117H57.3896ZM60.4573 105.293C76.0318 105.293 81.2233 113.316 81.2233 121.34C81.2233 129.363 74.8519 137.717 59.4662 137.717H32.3759V105.293H60.4573Z" fill="var(--fill-0, white)"/>
<path id="Vector_2" d="M240.414 53.9916V29.2611H133.186V162.872H240.414V138.189H164.571V105.812H231.4V84.5271H164.571V53.9916H240.414Z" fill="var(--fill-0, white)"/>
<path id="Vector_3" d="M362.321 162.872H396.018L337.354 29.2611H307.762L250.278 162.872H283.032L293.462 136.489H351.135L362.321 162.872ZM302.335 112.939L322.393 60.5518L343.678 112.939H302.335Z" fill="var(--fill-0, white)"/>
<path id="Vector_4" d="M523.399 29.2611H495.129V104.113C495.129 127.853 484.887 137.953 465.679 137.953C446.47 137.953 434.671 127.853 434.671 104.113V29.2611H404.938V105.624C404.938 145.032 429.008 164.382 464.263 164.382C499.471 164.382 523.399 145.032 523.399 105.624V29.2611Z" fill="var(--fill-0, white)"/>
<path id="Vector_5" d="M595.136 27.8929C565.403 27.8929 550.017 43.4674 550.017 63.3368C550.017 83.6781 563.232 93.0228 594.287 100.055C619.725 106.143 627.229 112.467 627.229 124.408C627.229 137.387 614.817 145.032 596.977 145.032C580.27 145.032 565.261 138.519 551.575 128.089L544.212 143.144C557.757 153.905 575.975 161.928 596.505 161.928C626.899 161.928 643.606 146.873 643.606 126.201C643.606 105.624 629.07 95.8545 600.988 88.8224C578.523 83.0173 567.48 77.9202 567.48 65.2246C567.48 53.9921 577.91 44.5057 597.354 44.5057C610.05 44.5057 623.406 48.8477 634.308 55.3607L640.68 40.4941C627.937 33.2732 612.504 27.8929 595.136 27.8929Z" fill="var(--fill-0, white)"/>
<path id="Vector_6" d="M754.185 15.0084V0.849734H659.983V15.0084H754.185ZM754.185 42.6178V29.2615H659.983V162.872H754.185V149.516H676.501V101.046H746.822V88.8223H676.501V42.6178H754.185Z" fill="var(--fill-0, white)"/>
<path id="Vector_7" d="M840.081 29.2611H779.104V43.9861H823.893V118.838C823.893 136.82 815.87 145.551 800.814 145.551C788.591 145.551 779.104 139.84 771.931 129.552L765.37 145.032C773.724 155.792 786.561 162.872 802.938 162.872C829.556 162.872 840.081 144.701 840.081 120.49V29.2611Z" fill="var(--fill-0, white)"/>
<path id="Vector_8" d="M937.304 123.228C981.101 123.228 1002.53 91.3705 1002.53 59.8911C1002.53 47.0067 999.649 37.0484 995.779 29.2611H966.235C971.379 37.5675 973.597 47.5258 973.597 57.1537C973.597 81.3178 957.74 99.205 936.266 99.205C914.225 99.205 898.698 81.3178 898.698 57.1537C898.698 46.8651 901.53 36.9068 907.004 29.2611H872.976C869.106 37.0484 866.416 47.0067 866.416 59.8911C866.416 91.3705 888.598 123.228 937.304 123.228ZM882.793 162.872H989.691C975.155 147.864 957.74 140.36 937.304 140.36C914.886 140.36 896.668 148.383 882.793 162.872Z" fill="var(--fill-0, white)"/>
<path id="Vector_9" d="M1146.38 29.2611H1130.99V104.963C1130.99 135.498 1116.13 149.657 1090.17 149.657C1064.21 149.657 1049.35 135.498 1049.35 104.963V29.2611H1032.97V105.624C1032.97 143.333 1054.96 163.533 1089.51 163.533C1124.06 163.533 1146.38 143.333 1146.38 105.624V29.2611Z" fill="var(--fill-0, white)"/>
<path id="Vector_10" d="M1258.23 162.872H1276.78L1245.73 116.148C1268.05 109.824 1277.11 93.0223 1277.11 74.1441C1277.11 48.8473 1261.07 29.2611 1226.85 29.2611H1176.44V162.872H1192.82V119.499H1228.55C1230.58 119.499 1232.94 119.31 1234.97 119.169L1258.23 162.872ZM1224.82 42.6175C1251.3 42.6175 1261.4 57.1537 1261.4 74.9936C1261.4 91.0401 1252.52 106.52 1224.82 106.52H1192.82V42.6175H1224.82Z" fill="var(--fill-0, white)"/>
</g>
</svg>
