<svg preserveAspectRatio="xMidYMid meet" overflow="visible" style="display: block;" viewBox="0 0 241 31.1255" fill="none" xmlns="http://www.w3.org/2000/svg">
<g id="beausejour-logo">
<path id="Vector" d="M11.5519 5.51363H0.186706V30.6897H11.9966C18.5063 30.6897 20.4094 27.426 20.4094 23.7087C20.4094 20.5072 18.5685 18.3551 15.8295 17.5281C18.0083 16.5232 19.28 14.6201 19.28 12.2012C19.28 8.06592 16.3453 5.51363 11.5519 5.51363ZM10.8138 9.95124C13.4373 9.95124 14.2643 11.214 14.2643 12.6903C14.2643 14.1665 13.1705 15.705 10.8138 15.705H6.10054V9.95124H10.8138ZM11.3919 19.8402C14.3266 19.8402 15.3048 21.352 15.3048 22.8639C15.3048 24.3757 14.1042 25.9497 11.2051 25.9497H6.10054V19.8402H11.3919Z" fill="var(--fill-0, black)"/>
<path id="Vector_2" d="M45.3008 10.1736V5.51363H25.096V30.6897H45.3008V26.0387H31.0098V19.9381H43.6023V15.9273H31.0098V10.1736H45.3008Z" fill="var(--fill-0, black)"/>
<path id="Vector_3" d="M68.2715 30.6897H74.6211L63.5671 5.51363H57.9912L47.1595 30.6897H53.3313L55.2966 25.7185H66.1639L68.2715 30.6897ZM56.9685 21.2809L60.748 11.4097L64.7588 21.2809H56.9685Z" fill="var(--fill-0, black)"/>
<path id="Vector_4" d="M98.6233 5.51363H93.2964V19.6179C93.2964 24.0911 91.3666 25.9942 87.7472 25.9942C84.1277 25.9942 81.9045 24.0911 81.9045 19.6179V5.51363H76.3019V19.9025C76.3019 27.3281 80.8373 30.9743 87.4804 30.9743C94.1146 30.9743 98.6233 27.3281 98.6233 19.9025V5.51363Z" fill="var(--fill-0, black)"/>
<path id="Vector_5" d="M112.141 5.25578C106.538 5.25578 103.639 8.19047 103.639 11.9344C103.639 15.7673 106.129 17.5281 111.98 18.8532C116.774 20.0004 118.188 21.192 118.188 23.4419C118.188 25.8875 115.849 27.3282 112.487 27.3282C109.339 27.3282 106.511 26.1009 103.932 24.1356L102.545 26.9725C105.097 29.0001 108.53 30.5119 112.398 30.5119C118.126 30.5119 121.274 27.675 121.274 23.7799C121.274 19.9025 118.535 18.0617 113.243 16.7366C109.01 15.6428 106.929 14.6824 106.929 12.2901C106.929 10.1736 108.895 8.38612 112.559 8.38612C114.951 8.38612 117.467 9.20427 119.522 10.4315L120.722 7.63021C118.321 6.26958 115.413 5.25578 112.141 5.25578Z" fill="var(--fill-0, black)"/>
<path id="Vector_6" d="M142.11 2.82796V0.160067H124.36V2.82796H142.11ZM142.11 8.03036V5.51365H124.36V30.6897H142.11V28.173H127.472V19.0399H140.723V16.7366H127.472V8.03036H142.11Z" fill="var(--fill-0, black)"/>
<path id="Vector_7" d="M158.295 5.51363H146.805V8.28825H155.245V22.3925C155.245 25.7808 153.733 27.426 150.896 27.426C148.593 27.426 146.805 26.3499 145.454 24.4112L144.218 27.3281C145.792 29.3557 148.211 30.6897 151.296 30.6897C156.312 30.6897 158.295 27.2659 158.295 22.7038V5.51363Z" fill="var(--fill-0, black)"/>
<path id="Vector_8" d="M176.615 23.2196C184.867 23.2196 188.905 17.2168 188.905 11.2852C188.905 8.8574 188.362 6.98098 187.633 5.51363H182.066C183.035 7.0788 183.453 8.95522 183.453 10.7694C183.453 15.3226 180.465 18.693 176.419 18.693C172.266 18.693 169.34 15.3226 169.34 10.7694C169.34 8.83072 169.874 6.9543 170.905 5.51363H164.494C163.764 6.98098 163.257 8.8574 163.257 11.2852C163.257 17.2168 167.437 23.2196 176.615 23.2196ZM166.343 30.6897H186.486C183.747 27.8617 180.465 26.4477 176.615 26.4477C172.391 26.4477 168.958 27.9595 166.343 30.6897Z" fill="var(--fill-0, black)"/>
<path id="Vector_9" d="M216.011 5.51363H213.112V19.778C213.112 25.5318 210.31 28.1996 205.419 28.1996C200.528 28.1996 197.727 25.5318 197.727 19.778V5.51363H194.641V19.9025C194.641 27.008 198.785 30.8142 205.295 30.8142C211.804 30.8142 216.011 27.008 216.011 19.9025V5.51363Z" fill="var(--fill-0, black)"/>
<path id="Vector_10" d="M237.087 30.6897H240.582L234.73 21.8856C238.937 20.694 240.644 17.5281 240.644 13.9709C240.644 9.20422 237.621 5.51363 231.173 5.51363H221.676V30.6897H224.761V22.517H231.493C231.876 22.517 232.32 22.4815 232.703 22.4548L237.087 30.6897ZM230.791 8.03035C235.78 8.03035 237.683 10.7694 237.683 14.1309C237.683 17.1546 236.011 20.0715 230.791 20.0715H224.761V8.03035H230.791Z" fill="var(--fill-0, black)"/>
</g>
</svg>
