<svg preserveAspectRatio="xMidYMid meet" overflow="visible" style="display: block;" viewBox="0 0 67 61.317" fill="none" xmlns="http://www.w3.org/2000/svg">
<path d="M64.0987 -1.46048e-05H47.89C51.2819 3.34699 52.586 7.87248 52.586 12.8018C52.586 23.0223 44.4952 31.9177 33.3385 31.9177C22.4211 31.9177 14.4259 23.2466 14.4259 12.9394C14.4259 7.78275 16.3761 3.16753 19.3163 -1.46048e-05H2.9462C1.08575 3.70592 0.0119577 8.01007 0.0119577 12.8018C0.0119577 28.0503 13.3581 44.4473 33.2428 44.4473C52.58 44.4473 66.8624 29.6624 66.8624 13.3402C66.8624 8.54847 65.8724 3.97811 64.1046 -0.01497L64.0987 -1.46048e-05Z" fill="black"/>
<path d="M33.5 51.0875C23.1509 51.0875 15.3322 54.9729 8.85955 61.323H58.5412C52.1583 54.928 44.875 51.0875 33.509 51.0875H33.5Z" fill="black"/>
</svg>
