<svg preserveAspectRatio="none" width="100%" height="100%" overflow="visible" style="display: block;" viewBox="0 0 32 32" fill="none" xmlns="http://www.w3.org/2000/svg">
<g id="Frame">
<path id="Vector" d="M12.75 17.5C12.75 17.7472 12.6767 17.9889 12.5393 18.1944C12.402 18.4 12.2067 18.5602 11.9783 18.6548C11.7499 18.7494 11.4986 18.7742 11.2561 18.7259C11.0136 18.6777 10.7909 18.5587 10.6161 18.3838C10.4413 18.209 10.3222 17.9863 10.274 17.7438C10.2258 17.5013 10.2505 17.25 10.3451 17.0216C10.4397 16.7932 10.5999 16.598 10.8055 16.4606C11.0111 16.3233 11.2527 16.25 11.5 16.25C11.8315 16.25 12.1494 16.3817 12.3839 16.6161C12.6183 16.8505 12.75 17.1684 12.75 17.5ZM20.5 16.25C20.2527 16.25 20.0111 16.3233 19.8055 16.4606C19.5999 16.598 19.4397 16.7932 19.3451 17.0216C19.2505 17.25 19.2258 17.5013 19.274 17.7438C19.3222 17.9863 19.4413 18.209 19.6161 18.3838C19.7909 18.5587 20.0136 18.6777 20.2561 18.7259C20.4986 18.7742 20.7499 18.7494 20.9783 18.6548C21.2067 18.5602 21.402 18.4 21.5393 18.1944C21.6767 17.9889 21.75 17.7472 21.75 17.5C21.75 17.1684 21.6183 16.8505 21.3839 16.6161C21.1494 16.3817 20.8315 16.25 20.5 16.25ZM28.7212 17.59C28.4902 17.6958 28.2391 17.7508 27.985 17.7512C27.7541 17.7507 27.5258 17.7036 27.3135 17.6128C27.1013 17.5219 26.9096 17.3892 26.75 17.2225V23C26.75 24.2597 26.2495 25.4679 25.3587 26.3587C24.4679 27.2495 23.2597 27.75 22 27.75H9.99997C8.74019 27.75 7.53201 27.2495 6.64121 26.3587C5.75041 25.4679 5.24997 24.2597 5.24997 23V17.2225C5.08987 17.3889 4.8979 17.5213 4.6855 17.612C4.47311 17.7026 4.24464 17.7495 4.01372 17.75C3.76001 17.7494 3.50938 17.6944 3.27872 17.5887C2.91869 17.4306 2.62337 17.1544 2.44155 16.8058C2.25973 16.4571 2.20229 16.0569 2.27872 15.6712L4.33122 4.6712C4.37521 4.43666 4.46671 4.21359 4.60009 4.01571C4.73347 3.81782 4.90591 3.64931 5.10681 3.52053C5.30771 3.39174 5.53283 3.30541 5.76833 3.26683C6.00383 3.22826 6.24473 3.23825 6.47622 3.2962L6.50622 3.30495L13.1075 5.24995H18.8925L25.4912 3.3112L25.5212 3.30245C25.7527 3.2445 25.9936 3.23451 26.2291 3.27308C26.4646 3.31166 26.6897 3.39799 26.8906 3.52678C27.0915 3.65556 27.264 3.82407 27.3974 4.02196C27.5307 4.21984 27.6222 4.44291 27.6662 4.67745L29.7187 15.6775C29.7943 16.0621 29.7368 16.4611 29.5555 16.8087C29.3742 17.1563 29.0799 17.4318 28.7212 17.59ZM11.735 6.4087L6.10497 4.74995C6.07327 4.74251 6.04038 4.74167 6.00834 4.74747C5.9763 4.75328 5.94579 4.76561 5.91872 4.7837C5.8901 4.80225 5.86558 4.82646 5.84666 4.85483C5.82774 4.88321 5.81483 4.91515 5.80872 4.9487L3.75622 15.9487C3.74558 16.0038 3.7538 16.0609 3.77956 16.1108C3.80531 16.1606 3.8471 16.2004 3.89819 16.2236C3.94928 16.2469 4.00671 16.2522 4.06122 16.2389C4.11574 16.2255 4.16417 16.1942 4.19872 16.15L11.735 6.4087ZM25.25 23V15.3037L18.6325 6.74995H13.3675L6.74997 15.3037V23C6.74997 23.8619 7.09238 24.6886 7.70187 25.2981C8.31136 25.9075 9.13801 26.25 9.99997 26.25H15.25V24.31L13.47 22.53C13.3375 22.3878 13.2654 22.1997 13.2688 22.0054C13.2722 21.8111 13.3509 21.6257 13.4883 21.4883C13.6258 21.3509 13.8111 21.2722 14.0054 21.2688C14.1997 21.2654 14.3878 21.3375 14.53 21.47L16 22.9387L17.47 21.47C17.6121 21.3375 17.8002 21.2654 17.9945 21.2688C18.1888 21.2722 18.3742 21.3509 18.5116 21.4883C18.649 21.6257 18.7277 21.8111 18.7311 22.0054C18.7346 22.1997 18.6625 22.3878 18.53 22.53L16.75 24.31V26.25H22C22.8619 26.25 23.6886 25.9075 24.2981 25.2981C24.9076 24.6886 25.25 23.8619 25.25 23ZM28.25 15.95L26.1975 4.94995C26.1912 4.91663 26.1782 4.88492 26.1593 4.85677C26.1404 4.82862 26.116 4.80461 26.0875 4.7862C26.0319 4.75184 25.9653 4.73978 25.9012 4.75245L20.2762 6.4062L27.8162 16.1562C27.8522 16.1967 27.9003 16.2245 27.9534 16.2353C28.0065 16.2461 28.0617 16.2394 28.1106 16.2161C28.1595 16.1928 28.1996 16.1543 28.2247 16.1063C28.2499 16.0583 28.2587 16.0034 28.25 15.95Z" fill="var(--fill-0, white)"/>
</g>
</svg>
