<svg preserveAspectRatio="none" width="100%" height="100%" overflow="visible" style="display: block;" viewBox="0 0 32 32" fill="none" xmlns="http://www.w3.org/2000/svg">
<g id="Frame">
<path id="Vector" d="M3.97419 17.7184C3.0124 19.4547 2.74356 21.6037 2.66842 22.6695C2.64251 23.0367 2.9381 23.3333 3.30672 23.3333H5.30914M3.97419 17.7184C3.97419 13.5253 5.19475 8.46539 7.63587 6.28163C7.85103 6.08915 8.13515 6 8.42399 6H14.8159C15.5883 6 16.3594 6.15613 17.0072 6.57629C18.6054 7.61271 21.0204 9.70628 23.0719 12.9191C23.2416 13.1848 23.495 13.3864 23.7915 13.4939C24.9724 13.922 26.2872 14.516 27.1286 14.9119C27.6966 15.1792 28.149 15.6455 28.3642 16.2347C28.9567 17.8573 29.2911 19.6677 29.3335 22.6659C29.3386 23.034 29.0392 23.3333 28.6706 23.3333H26.6682M3.97419 17.7184C4.4553 16.8497 5.10979 16.0845 6.00016 15.6097M21.3284 23.3333H10.6489" stroke="var(--stroke-0, white)" stroke-width="1.5" stroke-linecap="round" stroke-linejoin="round"/>
<path id="Vector_2" d="M10.6665 23.3335C10.6665 24.8063 9.47259 26.0002 7.99983 26.0002C6.52707 26.0002 5.33317 24.8063 5.33317 23.3335C5.33317 21.8607 6.52707 20.6668 7.99983 20.6668C9.47259 20.6668 10.6665 21.8607 10.6665 23.3335Z" stroke="var(--stroke-0, white)" stroke-width="1.5" stroke-linecap="round" stroke-linejoin="round"/>
<path id="Vector_3" d="M26.6665 23.3335C26.6665 24.8063 25.4726 26.0002 23.9998 26.0002C22.527 26.0002 21.3332 24.8063 21.3332 23.3335C21.3332 21.8607 22.527 20.6668 23.9998 20.6668C25.4726 20.6668 26.6665 21.8607 26.6665 23.3335Z" stroke="var(--stroke-0, white)" stroke-width="1.5" stroke-linecap="round" stroke-linejoin="round"/>
<path id="Vector_4" d="M23.3332 13.3333C19.3332 12 14.6665 11.3333 9.33317 12C9.33317 9.33333 10.6665 6.66667 11.3332 6" stroke="var(--stroke-0, white)" stroke-width="1.5" stroke-linecap="round" stroke-linejoin="round"/>
<path id="Vector_5" d="M10.6668 14.6668H12.0002" stroke="var(--stroke-0, white)" stroke-width="1.5" stroke-linecap="round" stroke-linejoin="round"/>
</g>
</svg>
