<svg preserveAspectRatio="none" width="100%" height="100%" overflow="visible" style="display: block;" viewBox="0 0 20 20" fill="none" xmlns="http://www.w3.org/2000/svg">
<g id="Frame">
<path id="Vector" d="M2.48397 11.074C1.88285 12.1592 1.71483 13.5023 1.66786 14.1684C1.65167 14.3979 1.83641 14.5833 2.0668 14.5833H3.31831M2.48397 11.074C2.48397 8.45333 3.24682 5.29087 4.77252 3.92602C4.90699 3.80572 5.08457 3.75 5.26509 3.75H9.26003C9.74278 3.75 10.2247 3.84758 10.6296 4.11018C11.6285 4.75794 13.1379 6.06642 14.42 8.07445C14.5261 8.24049 14.6845 8.3665 14.8698 8.43367C15.6079 8.70125 16.4296 9.0725 16.9555 9.31992C17.3105 9.487 17.5932 9.77842 17.7277 10.1467C18.098 11.1608 18.307 12.2923 18.3335 14.1662C18.3367 14.3962 18.1496 14.5833 17.9192 14.5833H16.6677M2.48397 11.074C2.78466 10.5311 3.19372 10.0528 3.7502 9.75608M13.3304 14.5833H6.65565" stroke="var(--stroke-0, white)" stroke-linecap="round" stroke-linejoin="round"/>
<path id="Vector_2" d="M6.66646 14.5834C6.66646 15.5039 5.92027 16.2501 4.9998 16.2501C4.07932 16.2501 3.33313 15.5039 3.33313 14.5834C3.33313 13.6629 4.07932 12.9168 4.9998 12.9168C5.92027 12.9168 6.66646 13.6629 6.66646 14.5834Z" stroke="var(--stroke-0, white)" stroke-linecap="round" stroke-linejoin="round"/>
<path id="Vector_3" d="M16.6665 14.5834C16.6665 15.5039 15.9203 16.2501 14.9998 16.2501C14.0793 16.2501 13.3331 15.5039 13.3331 14.5834C13.3331 13.6629 14.0793 12.9168 14.9998 12.9168C15.9203 12.9168 16.6665 13.6629 16.6665 14.5834Z" stroke="var(--stroke-0, white)" stroke-linecap="round" stroke-linejoin="round"/>
<path id="Vector_4" d="M14.5831 8.33333C12.0831 7.5 9.16646 7.08333 5.83313 7.5C5.83313 5.83333 6.66646 4.16667 7.08313 3.75" stroke="var(--stroke-0, white)" stroke-linecap="round" stroke-linejoin="round"/>
<path id="Vector_5" d="M6.66687 9.16677H7.5002" stroke="var(--stroke-0, white)" stroke-linecap="round" stroke-linejoin="round"/>
</g>
</svg>
