<svg preserveAspectRatio="none" width="100%" height="100%" overflow="visible" style="display: block;" viewBox="0 0 20 20" fill="none" xmlns="http://www.w3.org/2000/svg">
<g id="Frame">
<path id="Vector" d="M2.50005 9.15592V12.9104C2.50005 15.2702 2.50005 16.4503 3.23228 17.1833C3.96452 17.9165 5.14303 17.9165 7.50005 17.9165H12.5001C14.8571 17.9165 16.0356 17.9165 16.7678 17.1833C17.5001 16.4503 17.5001 15.2702 17.5001 12.9104V9.15592" stroke="var(--stroke-0, white)" stroke-width="1.25"/>
<path id="Vector_2" d="M12.5001 14.1473C11.93 14.6533 11.0224 14.9807 10.0001 14.9807C8.97775 14.9807 8.07013 14.6533 7.50005 14.1473" stroke="var(--stroke-0, white)" stroke-width="1.25"/>
<path id="Vector_3" d="M14.8298 2.08578L5.12491 2.11002C3.67643 2.0354 3.30505 3.15216 3.30505 3.69807C3.30505 4.18632 3.24218 4.89812 2.35442 6.23592C1.46666 7.57372 1.53337 7.97113 2.03398 8.89725C2.44945 9.66592 3.50623 9.96617 4.05723 10.0167C5.80741 10.0565 6.65893 8.54308 6.65893 7.47936C7.52714 10.1521 9.99633 10.1521 11.0966 9.84642C12.1988 9.54025 13.1432 8.44425 13.3659 7.47936C13.4959 8.6785 13.8902 9.37817 15.0552 9.859C16.2621 10.357 17.3 9.59583 17.8207 9.10783C18.3414 8.61992 18.6756 7.53667 17.7473 6.34608C17.1072 5.52501 16.8404 4.7515 16.7528 3.94981C16.702 3.48528 16.6573 2.98613 16.331 2.66849C15.854 2.20429 15.1697 2.06344 14.8298 2.08578Z" stroke="var(--stroke-0, white)" stroke-width="1.25"/>
</g>
</svg>
