<svg xmlns="http://www.w3.org/2000/svg" viewBox="0 0 112 103" fill="none">
  <g opacity="1" transform="translate(48, 41) scale(0.24)">
    <path d="M64.0987 0H47.89C51.2819 3.347 52.586 7.872 52.586 12.802C52.586 23.022 44.495 31.918 33.339 31.918C22.421 31.918 14.426 23.247 14.426 12.939C14.426 7.783 16.376 3.168 19.316 0H2.946C1.086 3.706 0.012 8.01 0.012 12.802C0.012 28.05 13.358 44.447 33.243 44.447C52.58 44.447 66.862 29.662 66.862 13.34C66.862 8.548 65.872 3.978 64.105-0.015L64.099 0Z" fill="white"/>
    <path d="M33.5 51.088C23.151 51.088 15.332 54.973 8.86 61.323H58.541C52.158 54.928 44.875 51.088 33.509 51.088H33.5Z" fill="white"/>
  </g>
</svg>
