<svg width="368" height="350" viewBox="0 0 368 350" fill="none" xmlns="http://www.w3.org/2000/svg">
<path d="M153.932 74.9191L155.405 73.5801C157.31 73.6076 160.079 73.6116 161.636 74.9458L162.185 74.9201C165.435 73.4086 165.04 74.7343 167.442 73.9436C168.31 75.0176 168.814 75.2403 170.019 75.9431C171.789 75.3573 172.927 74.4166 174.544 73.7896C178.612 74.8063 183.354 77.1301 181.919 82.2753C181.821 82.6216 181.717 82.9661 181.607 83.3088L181.048 84.3398L181.178 84.7153C181.856 84.6056 182.06 84.2691 182.577 83.7506C187.264 79.2061 193.156 78.5871 196.555 84.8888L196.063 88.6463C198.713 87.9663 199.869 87.0916 202.238 85.7673C203.091 85.9938 204.481 86.3458 205.229 86.7613C207.467 88.0031 208.732 90.0106 211.336 90.2608C211.68 90.0746 216.16 89.1823 217.073 88.9016C217.841 88.6376 217.65 88.8268 218.032 88.2448C218.039 87.2293 217.384 86.4431 216.82 85.5351C218.798 81.5928 218.959 80.6451 223.606 79.7746C225.098 80.4978 226.778 81.4298 228.385 81.7098C231.405 80.7406 236.063 80.2586 239.321 80.0131C240.331 78.7106 239.782 75.4913 241.734 74.8781C246.292 73.4463 246.86 75.6706 248.026 79.2996C250.605 79.3373 253.555 78.7828 256.14 78.7206C263.282 78.3568 270.377 77.6028 277.525 77.1448C283.787 76.7431 285.69 74.7403 292.02 78.5798C294.042 79.7128 295.092 80.5203 296.97 81.6981C300.607 83.6068 304.13 86.2171 305.125 90.4031C307.227 99.2388 307.59 107.214 300.34 113.625C305.882 120.603 306.532 124.538 305.957 133.333C305.635 138.256 303.782 138.278 302.272 141.79C304.635 146.131 311.222 145.207 315.517 144.939C329.145 144.089 335.452 145.986 346.877 152.807C358.647 160.035 359.482 170.861 348.827 179.705C356.712 186.965 360.485 189.243 361.03 201.281C361.402 208.077 359.017 214.737 354.417 219.752C345.685 229.299 325.2 230.113 313.637 226.748C313.305 226.71 312.105 226.329 311.715 226.215C310.195 225.883 308.732 225.603 307.267 225.068C298.947 224.784 297.915 227.516 288.98 223.484L286.97 222.679C283.467 222.445 280.815 225.427 280.017 228.593C278.415 234.947 274.222 233.707 272.42 228.292C267.397 228.121 267.042 227.55 261.915 228.489C259.282 227.062 258.11 226.258 256.197 223.876C255.747 223.457 255.59 223.238 255.227 222.761C252.61 221.68 248.168 223.647 243.49 222.89C242.57 222.444 241.73 221.89 240.759 221.972L240.35 222.287C240.799 223.439 242.116 223.405 243.235 223.574C246.461 224.718 247.887 227.032 249.472 229.931C247.948 233.531 245.091 238.522 240.424 236.363C239.261 235.825 238.252 234.823 237.004 234.631C236.126 235.018 235.381 236.768 234.929 237.666C237.44 238.54 238.886 239.084 240.861 240.877C241.992 244.054 241.842 246.236 239.754 248.986C233.384 252.122 229.849 248.807 230.129 242.247C228.731 242.946 221.413 246.527 220.729 247.232C221.08 250.282 221.704 251.807 221.45 254.982C219.887 257.377 218.951 258.187 216.083 258.785C215.75 258.855 215.415 258.917 215.08 258.97C209.975 257.01 209.375 255.515 209.274 250.07C206.488 251.117 203.737 252.465 200.794 252.682C199.267 252.797 197.566 252.55 196.128 252.682C198.751 253.967 199.21 254.062 201.077 256.317C201.51 258.67 202.131 260.877 200.612 262.92C199.628 264.245 197.497 266.357 195.858 266.477C192.965 266.69 189.093 263.462 188.93 260.48C188.77 257.547 189.855 256.592 191.018 254.415C189.202 253.982 187.296 257.235 186.004 258.47C182.123 262.18 178.239 260.772 175.574 256.432C175.227 255.865 174.888 255.292 174.555 254.715C171.186 254.665 167.818 254.587 164.45 254.48C166.404 256.35 166.856 257.762 167.624 260.37C166.617 264.097 166.104 264.547 163.01 266.875C158.272 269.482 155.177 264.43 154.97 260.295C152.95 260.64 150.917 261.107 148.911 261.54C147.199 262.037 144.806 262.472 143.046 262.107L142.926 262.5C144.982 265.36 146.2 266.202 145.635 270.02C142.069 277.107 136.533 273.88 135.241 267.367C134.279 267.755 133.204 268.27 132.248 268.702C129.665 270.31 123.934 272.257 123.337 272.715C123.743 274.505 124.361 276.322 123.363 278.03C121.607 281.035 117.267 279.392 116.986 276.245C116.879 275.047 117.288 274.7 117.613 273.647L117.319 273.382L115.861 273.45L112.532 273.605C110.548 282.61 105.585 289.015 98.0307 294.22C95.647 295.822 92.2602 297.93 89.5715 298.96C87.3125 300.39 83.8397 301.985 81.4187 303.107C76.1587 305.732 70.9597 308.385 65.6555 311.172C58.9785 314.685 50.3267 310.992 44.3137 307.625C40.833 305.672 36.5907 295.712 34.5857 291.797L23.5292 270.232C19.8016 262.845 13.919 253.355 11.4436 245.481C10.3801 242.098 13.5659 236.579 16.1954 234.391C20.224 231.039 26.8107 228.382 31.553 225.797C37.6147 222.38 43.9517 219.468 50.166 216.398C53.8647 214.57 62.1247 213.997 64.1012 210.943C65.497 206.995 65.2172 205.264 65.7072 201.198C65.8302 199.698 66.686 197.501 67.2 196.021C67.483 194.953 67.9225 193.69 68.2652 192.62C69.8182 186.905 71.0472 177.5 72.6622 172.495L72.4032 172.15C70.3227 172.48 68.8602 172.536 66.7812 172.503C64.1237 170.625 63.8592 170.009 63.2477 166.774C58.7372 164.8 53.8772 165.075 50.7537 162.909C48.5462 162.107 44.7582 159.107 43.6705 157.114C38.6472 147.908 33.425 135.456 43.9532 128.114C47.0222 124.921 61.844 121.39 66.268 119.113C70.5325 116.917 70.2037 115.203 75.4827 114.909C78.3417 114.678 82.9365 113.084 85.5577 111.853C86.3122 111.59 87.2915 111.106 88.0385 110.764C88.709 109.071 90.4142 105.762 92.4007 105.413C94.5997 105.025 95.932 106.258 97.7075 106.964L97.9182 107.046C100.231 106.39 105.639 105.436 106.494 102.847C106.401 100.84 106.485 101.148 107.897 99.9133C107.844 99.2176 107.994 99.4648 107.604 99.0653C107.097 99.4673 107.064 99.4428 106.467 99.6221L106.077 99.4043C105.791 98.5811 105.98 98.1321 106.162 97.2693C108.939 93.5253 110.434 92.8171 114.332 90.4516C115.233 84.5548 117.965 83.9613 123.066 83.5818C124.339 85.0986 125.706 86.1191 126.213 88.0221L126.599 89.2376L128.226 89.9181C129.073 89.5513 129.192 88.6111 129.64 87.8781C131.014 85.6298 132.945 83.7981 134.642 81.7863C136.493 77.9996 138.487 74.3301 143.464 76.8538C144.333 77.2946 145.516 78.0043 146.043 78.8221C146.572 79.2263 146.832 79.5791 147.485 79.5706C149.391 79.5458 152.506 76.2358 153.932 74.9191ZM133.162 265.552L133.578 265.122L133.236 264.855L133.162 265.552Z" fill="#FDFDFD"/>
<path d="M81.4187 303.108C76.1587 305.733 70.9597 308.385 65.6555 311.173C58.9785 314.685 50.3267 310.993 44.3137 307.625C40.833 305.673 36.5907 295.713 34.5857 291.798L23.5292 270.233C19.8016 262.845 13.919 253.355 11.4436 245.482C10.3801 242.099 13.5659 236.579 16.1954 234.391C20.224 231.039 26.8107 228.382 31.553 225.798C37.6147 222.38 43.9517 219.469 50.166 216.398C53.8647 214.57 62.1247 213.998 64.1012 210.943L64.5852 211.036C64.8997 211.819 65.0892 212.409 65.5802 213.101C65.4337 213.983 65.4577 214.778 64.9667 215.387C63.7955 215.546 62.721 215.47 61.5785 215.595C50.6492 216.792 41.166 223.282 31.5175 228.105C27.4675 230.129 18.6872 233.905 16.0681 237.337C14.2479 239.731 13.4568 242.751 13.87 245.729C14.0302 246.883 14.3523 248.008 14.8268 249.071C16.3108 252.458 18.4706 256.418 20.1927 259.76L29.2705 277.353L38.0467 294.28C39.414 296.895 40.6272 299.645 42.16 302.165C43.012 303.565 44.0552 304.803 45.3692 305.793C47.7475 307.583 51.269 308.075 54.1537 307.625C58.3505 306.973 86.4952 291.748 90.9557 288.543C94.2467 286.178 97.161 283.46 99.5137 280.148C101.995 276.653 103.476 272.745 104.227 268.548C114.251 268.765 120.769 267.153 128.958 261.335C130.174 259.998 131.983 258.328 133.319 257.03C135.496 257.665 137.298 257.928 139.568 257.535C148.254 256.035 153.51 253.083 152.234 243.704C152.84 244.12 153.476 244.64 154.063 245.095C154.734 245.594 157.203 247.35 157.614 247.849L157.57 248.29C159.062 249.846 162.705 250.76 164.822 250.905C166.004 250.985 168.127 249.392 169.45 250.253C169.029 250.773 167.484 250.648 166.908 250.963C161.869 253.72 162.643 251.04 159.108 250.058L159.118 250.37C159.611 250.768 163.127 253.04 163.053 252.933L162.747 253.4L162.865 253.475C161.866 253.798 162.202 253.855 161.427 253.5L160.912 252.728C160.289 253.665 161.2 253.533 160.274 254.328C158.176 254.378 159.168 252.378 156.765 253.458C156.591 254.28 156.886 254.64 157.419 255.453C157.495 255.568 157.572 255.683 157.651 255.795C156.418 256.825 156.208 255.753 155.632 256.773L155.772 257.715C154.817 258.34 153.058 257.9 151.916 257.713C151.224 258.753 150.949 259.105 150.093 260.015C150.258 260.445 150.316 260.358 150.248 260.698L149.028 260.853C148.869 261.27 148.883 261.105 148.911 261.54C147.199 262.038 144.806 262.473 143.046 262.108L142.926 262.5C144.982 265.36 146.2 266.203 145.635 270.02C142.069 277.108 136.533 273.88 135.241 267.368C134.279 267.755 133.204 268.27 132.248 268.703C129.665 270.31 123.934 272.258 123.337 272.715C123.743 274.505 124.361 276.323 123.363 278.03C121.607 281.035 117.267 279.393 116.986 276.245C116.879 275.048 117.288 274.7 117.613 273.648L117.319 273.383L115.861 273.45L112.532 273.605C110.548 282.61 105.585 289.015 98.0307 294.22C95.647 295.823 92.2602 297.93 89.5715 298.96C87.3125 300.39 83.8397 301.985 81.4187 303.108ZM133.162 265.553L133.578 265.123L133.236 264.855L133.162 265.553Z" fill="#CE2024"/>
<path d="M132.248 268.703C132.714 267.568 132.917 267.308 133.832 266.493C134.203 266.525 134.572 266.553 134.939 266.615L134.803 266.208C135.279 265.253 135.439 265.08 135.194 264.16C134.771 263.798 134.324 263.52 134.175 263.013C135.82 261.023 141.245 260.493 143.046 262.108L142.926 262.5C144.982 265.36 146.2 266.203 145.635 270.02C142.069 277.108 136.533 273.88 135.241 267.368C134.279 267.755 133.204 268.27 132.248 268.703Z" fill="#C1282A"/>
<path d="M98.0308 294.22L97.7713 293.387C96.841 293.297 96.0985 293.112 95.5745 292.33L95.7493 291.627C98.3815 290.707 99.6545 287.305 102.142 286.2C107.877 283.652 104.908 271.01 112.315 272.577C112.65 272.65 115.662 273.365 115.862 273.45L112.533 273.605C110.548 282.61 105.585 289.015 98.0308 294.22Z" fill="#C1282A"/>
<path d="M152.235 243.704C152.84 244.12 153.477 244.641 154.063 245.096L153.943 245.63L153.272 245.216C152.927 245.899 153.077 247.369 152.922 248.28C152.094 253.135 149.487 255.053 145.208 256.615C147.323 257.738 151.337 253.875 152.303 252.178C152.786 251.33 153.236 247.897 153.778 247.545C154.24 248.126 154.245 248.15 154.366 248.897C154 249.899 153.231 250.623 153.013 251.558C152.145 255.283 145.878 258.773 142.257 258.633C139.702 256.73 139.007 259.143 136.435 258.435C135.508 258.18 135.634 257.86 134.545 258.035C135.149 258.553 138.055 258.975 139.029 259.16C137.239 259.093 135.457 258.77 133.679 258.705C131.938 258.643 130.638 260.61 129.248 261.558L128.958 261.335C130.175 259.998 131.983 258.328 133.319 257.03C135.496 257.665 137.299 257.928 139.568 257.535C148.254 256.035 153.51 253.083 152.235 243.704Z" fill="#D52D29"/>
<path d="M117.319 273.382L117.538 273.207C118.409 273.227 120.732 273.76 121.655 273.947C122.247 273.262 122.408 272.927 123.338 272.715C123.744 274.505 124.361 276.322 123.363 278.03C121.607 281.035 117.267 279.392 116.986 276.245C116.879 275.047 117.288 274.7 117.613 273.647L117.319 273.382Z" fill="#B91D1D"/>
<path d="M81.4187 303.108L81.2452 302.798C82.5957 302.11 84.3155 300.633 85.825 299.665L85.887 298.825L86.1755 298.625L86.322 299.26C86.826 299.513 86.8672 299.55 87.4392 299.688L87.4952 299.305L86.4452 298.47C86.2555 297.698 86.233 298.025 86.709 297.19C87.7812 296.673 87.3335 296.745 88.4392 296.8C89.0847 297.47 88.8832 297.463 88.918 298.598L89.5715 298.96C87.3125 300.39 83.8397 301.985 81.4187 303.108Z" fill="#B91D1D"/>
<path d="M133.236 264.855L133.578 265.123L133.162 265.553L133.236 264.855Z" fill="#C1282A" fill-opacity="0.984314"/>
<path d="M248.724 215.868C250.727 216.1 250.762 214.929 252.37 215.077C252.775 215.799 253.495 217.846 253.41 218.584C252.762 218.875 252.88 218.753 252.02 218.582C251.872 219.682 254.447 221.669 255.227 222.761C252.61 221.68 248.168 223.647 243.49 222.89C242.57 222.444 241.73 221.89 240.759 221.972L240.35 222.288C240.799 223.439 242.116 223.406 243.235 223.574C246.461 224.719 247.887 227.032 249.472 229.931C247.948 233.532 245.091 238.523 240.424 236.364C239.261 235.826 238.252 234.824 237.004 234.632C236.126 235.019 235.381 236.769 234.929 237.667C237.44 238.54 238.886 239.084 240.861 240.878C241.992 244.055 241.842 246.236 239.754 248.987C233.384 252.123 229.849 248.807 230.129 242.248C228.731 242.947 221.413 246.527 220.729 247.232C221.08 250.283 221.704 251.808 221.45 254.983C219.887 257.378 218.951 258.188 216.083 258.785C215.75 258.855 215.415 258.918 215.08 258.97C209.975 257.01 209.375 255.515 209.274 250.07C206.488 251.118 203.737 252.465 200.794 252.683C199.267 252.798 197.566 252.55 196.128 252.683C198.751 253.968 199.21 254.063 201.077 256.318C201.51 258.67 202.131 260.878 200.612 262.92C199.628 264.245 197.497 266.358 195.858 266.478C192.965 266.69 189.093 263.463 188.93 260.48C188.77 257.548 189.855 256.593 191.018 254.415C189.202 253.983 187.296 257.235 186.004 258.47C182.123 262.18 178.239 260.773 175.574 256.433C175.227 255.865 174.888 255.293 174.555 254.715C171.186 254.665 167.818 254.588 164.45 254.48C166.404 256.35 166.856 257.763 167.624 260.37C166.617 264.098 166.104 264.548 163.01 266.875C158.272 269.483 155.177 264.43 154.97 260.295C152.95 260.64 150.917 261.108 148.911 261.54C148.883 261.105 148.869 261.27 149.028 260.853L150.248 260.698C150.316 260.358 150.258 260.445 150.093 260.015C150.949 259.105 151.224 258.753 151.916 257.713C153.058 257.9 154.817 258.34 155.772 257.715L155.632 256.773C156.208 255.753 156.418 256.825 157.651 255.795C157.572 255.683 157.495 255.568 157.419 255.453C156.886 254.64 156.591 254.28 156.765 253.458C159.168 252.378 158.176 254.378 160.274 254.328C161.2 253.533 160.289 253.665 160.912 252.728L161.427 253.5C162.202 253.855 161.866 253.798 162.865 253.475L162.747 253.4L163.053 252.933C164.127 252.96 170.061 251.113 170.532 251.193C176.121 252.14 179.674 251.215 185.188 250.293C186.398 249.6 187.652 248.904 188.835 248.173L188.572 247.875C203.748 243.438 213.452 245.642 226.153 233.511C226.276 233.26 228.062 230.698 228.377 230.166C231.049 225.655 231.348 222.638 231.537 217.598C237.502 218.223 243.062 217.836 248.724 215.868Z" fill="#C1282A"/>
<path d="M188.572 247.876C203.748 243.438 213.452 245.643 226.153 233.512C224.727 237.796 214.127 242.411 210.058 243.64C209.087 243.934 207.27 244.172 206.646 244.598C207.161 244.913 209.617 244.781 210.393 244.772L195.378 248.17C192.75 248.771 187.716 250.025 185.188 250.293C186.398 249.601 187.652 248.904 188.835 248.173L188.572 247.876Z" fill="#D52D29"/>
<path d="M345.867 156.271L346.065 156.112L346.005 155.605C344.91 153.981 344.142 152.785 342.34 151.93L342.57 151.679C344.637 151.257 345.06 153.223 346.81 153.795L346.877 152.807C358.647 160.035 359.482 170.861 348.827 179.706C356.712 186.966 360.485 189.244 361.03 201.282C361.402 208.078 359.017 214.737 354.417 219.752C345.685 229.3 325.2 230.114 313.637 226.748C313.305 226.711 312.105 226.33 311.715 226.216C316.317 225.918 320.81 225.887 325.39 225.464C327.677 225.253 330.955 223.268 332.565 223.366L332.672 222.872L333.49 222.628L333.24 222.263C336.212 221.222 337.9 220.441 340.687 219.058C341.302 218.439 342.137 217.997 342.825 217.461C344.975 215.757 347.127 213.918 348.605 211.586C353.627 203.656 353.965 193.013 348.947 184.991C346.422 180.954 342.925 178.373 338.957 175.926C347.15 171.433 349.692 164.905 345.867 156.271Z" fill="#C1282A"/>
<path d="M333.24 222.263C336.212 221.222 337.9 220.441 340.687 219.058C340.287 220.13 339.812 219.857 338.892 220.664C339.515 220.697 339.822 220.644 340.427 220.568C339.007 222.445 329.305 225.541 326.727 225.925C322.652 226.532 317.642 226.309 313.637 226.748C313.305 226.711 312.105 226.33 311.715 226.216C316.317 225.918 320.81 225.887 325.39 225.464C327.677 225.253 330.955 223.268 332.565 223.366L332.672 222.872L333.49 222.628L333.24 222.263Z" fill="#D52D29"/>
<path d="M170.019 75.9435C171.789 75.3578 172.927 74.417 174.544 73.79C178.612 74.8068 183.354 77.1305 181.919 82.2758C181.821 82.622 181.717 82.9665 181.607 83.3093L181.048 84.3403L181.178 84.7158C181.857 84.606 182.06 84.2695 182.577 83.751C187.264 79.2065 193.156 78.5875 196.555 84.8893L196.063 88.6468C198.713 87.9668 199.869 87.092 202.238 85.7678C203.091 85.9943 204.481 86.3463 205.23 86.7618C207.467 88.0035 208.732 90.011 211.336 90.2613C210.51 90.545 204.441 93.9218 204.07 94.3345L203.947 94.8683C199.251 98.78 198.814 101.43 199.555 107.302L199.193 107.66C199.471 109.948 200.822 112.893 199.81 114.818C198.406 115.023 196.945 111.852 194.817 111.607C193.576 110.891 185.067 103.657 183.476 102.322C183.588 98.5285 183.143 96.6955 180.928 93.5193C177.594 88.7375 173.014 84.0745 169.97 79.1693L169.891 79.0395C169.796 78.7183 169.503 78.1065 169.357 77.7738L169.529 77.3845L170.294 77.284C170.486 76.7825 170.269 76.6133 170.019 75.9435Z" fill="#C1282A"/>
<path d="M194.906 92.4717C195.558 92.8922 196.424 95.5974 196.485 96.4719C196.699 99.5514 194.14 99.4672 192.253 99.4952C190.815 98.0124 190.659 97.1802 190.133 95.1954C191.721 94.2439 193.275 93.5057 194.906 92.4717Z" fill="#99527E"/>
<path d="M295.647 84.6511C296.125 83.1536 293.88 82.3011 293.407 81.0256L293.825 80.8721C294.742 81.1748 295.597 81.6486 296.462 82.0851L296.97 81.6986C300.607 83.6073 304.13 86.2176 305.125 90.4036C307.227 99.2393 307.59 107.214 300.34 113.626C305.882 120.603 306.532 124.538 305.957 133.333C305.635 138.257 303.782 138.279 302.272 141.791C301.96 141.918 301.567 142.078 301.095 142.271C300.47 143.285 300.947 143.204 299.822 143.078C296.945 140.539 294.682 139.906 291.032 139.444C298.4 134.224 298.137 130.105 297.345 121.691C296.82 116.108 294.665 112.272 289.335 110.08L289.552 109.982C298.415 105.965 298.33 99.3048 297.282 90.7383C296.985 88.3058 296.68 86.8923 295.647 84.6511Z" fill="#C62529"/>
<path d="M114.332 90.4518C115.233 84.555 117.965 83.9615 123.066 83.582C124.339 85.0988 125.706 86.1193 126.213 88.0223L126.599 89.2378C126.255 89.9078 125.985 90.574 125.455 91.0933C123.846 90.416 122.697 90.134 120.94 90.625C116.383 91.8983 108.811 94.5083 108.133 99.942C108.312 102.278 108.426 103.492 109.2 105.76C106.372 106.379 103.778 107.552 101.051 108.448C94.8013 110.504 88.718 113.092 82.5793 115.343L60.0685 123.739C56.1565 125.171 49.0308 127.532 45.4875 129.257C45.1913 129.069 45.2445 129.121 44.8898 129.034C43.6128 129.18 41.8658 131.567 40.911 132.657C40.7963 132.552 40.6815 132.447 40.5665 132.342C40.6995 131.246 43.0585 129.387 44.0055 128.548L43.9533 128.114C47.0223 124.921 61.844 121.39 66.268 119.113C70.5325 116.917 70.2038 115.204 75.4828 114.909C78.3418 114.678 82.9365 113.084 85.5578 111.854C86.3123 111.59 87.2915 111.106 88.0385 110.765C88.709 109.071 90.4143 105.763 92.4008 105.413C94.5998 105.026 95.932 106.259 97.7075 106.964L97.9183 107.046C100.232 106.39 105.639 105.437 106.494 102.847C106.401 100.84 106.486 101.148 107.898 99.9135C107.844 99.2178 107.994 99.465 107.604 99.0655C107.097 99.4675 107.064 99.443 106.467 99.6223L106.078 99.4045C105.791 98.5813 105.98 98.1323 106.163 97.2695C108.939 93.5255 110.434 92.8173 114.332 90.4518Z" fill="#EF2223"/>
<path d="M114.332 90.4518C115.233 84.555 117.965 83.9615 123.066 83.582C124.339 85.0988 125.706 86.1193 126.213 88.0223C124.316 86.832 116.589 89.8008 114.332 90.4518Z" fill="#B91D1D"/>
<path d="M88.0385 110.765C88.709 109.072 90.4143 105.763 92.4008 105.413C94.5998 105.026 95.932 106.259 97.7075 106.965L97.9183 107.046C96.703 107.337 90.6868 110.104 89.3655 110.817L88.0385 110.765Z" fill="#C1282A"/>
<path d="M74.2185 154.597C75.8745 153.914 77.543 153.262 79.2232 152.641C77.9905 157.252 75.9957 166.186 75.116 170.913C73.3997 171.335 74.7545 170.436 72.75 172.056L72.6622 172.495L72.4032 172.15C70.3227 172.48 68.8602 172.536 66.7812 172.503C64.1237 170.625 63.8592 170.009 63.2477 166.774C58.7372 164.8 53.8772 165.075 50.7537 162.909C55.1597 163.767 55.0805 163.222 59.1142 161.581C58.456 161.666 56.8725 161.984 56.387 161.715C57.6002 160.748 60.5465 161.109 61.1825 159.628C62.4315 158.837 72.4082 155.231 74.2185 154.597Z" fill="#C1282A"/>
<path d="M74.2185 154.597C75.8745 153.914 77.543 153.262 79.2233 152.641C77.9905 157.252 75.9957 166.186 75.116 170.913C73.3997 171.335 74.7545 170.436 72.75 172.056C73.8713 169.578 74.9893 169.085 74.4035 165.884C74.8278 165.011 74.8262 164.25 74.9232 163.278C75.0245 162.554 74.8948 162.594 75.3063 162.193C75.4098 162.999 75.3345 164.044 75.7742 164.544C75.9865 164.238 77.2018 157.78 77.719 156.769C78.0083 156.204 77.5077 155.327 77.1072 154.798C76.0575 154.205 75.4045 154.49 74.2185 154.597Z" fill="#EF2223"/>
<path d="M74.4035 165.885C73.0833 165.05 71.5873 163.519 73.513 162.367C74.5095 162.529 74.1303 162.343 74.9233 163.279C74.8263 164.25 74.8278 165.012 74.4035 165.885Z" fill="#BF7A8C"/>
<path d="M277.402 212.92C279.492 215.131 282.1 218.019 284.45 219.841L284.27 220.139C287.49 221.831 290.965 221.267 294.448 220.927C292.933 221.472 290.48 222.18 288.987 222.883C288.655 223.04 288.57 222.212 286.97 222.679C283.468 222.445 280.815 225.427 280.017 228.593C278.415 234.947 274.223 233.707 272.42 228.292C267.398 228.121 267.043 227.55 261.915 228.489C259.283 227.062 258.11 226.258 256.198 223.876C258.938 224.463 258.255 226.184 260.8 226.058C262.97 225.951 269.882 224.801 271.267 223.38L270.855 223.084L271.71 222.723L271.487 222.348C276.035 219.639 276.717 217.917 277.402 212.92Z" fill="#C1282A"/>
<path d="M239.321 80.0136C240.331 78.7111 239.782 75.4919 241.735 74.8786C246.292 73.4469 246.86 75.6711 248.026 79.3001L248.003 79.4279C247.264 80.6601 247.168 81.0054 245.826 81.5611L245.631 81.5164L245.409 81.5519C239.566 82.4401 233.82 81.7281 228.21 84.0971C225.073 85.4219 223.592 90.5014 222.023 91.2986L220.58 91.2154C216.815 91.1879 207.459 93.2504 203.947 94.8684L204.07 94.3346C204.441 93.9219 210.51 90.5451 211.336 90.2614C211.681 90.0751 216.161 89.1829 217.073 88.9021C217.841 88.6381 217.65 88.8274 218.033 88.2454C218.039 87.2299 217.384 86.4436 216.82 85.5356C218.799 81.5934 218.96 80.6456 223.606 79.7751C225.098 80.4984 226.779 81.4304 228.385 81.7104C231.405 80.7411 236.063 80.2591 239.321 80.0136Z" fill="#EF2223"/>
<path d="M216.82 85.5359C218.799 81.5936 218.959 80.6459 223.606 79.7754C225.098 80.4986 226.779 81.4306 228.385 81.7106C223.451 81.9909 223.618 89.6349 219.911 90.1434C218.573 89.6544 218.444 88.9901 217.073 88.9024C217.841 88.6384 217.65 88.8276 218.033 88.2456C218.039 87.2301 217.384 86.4439 216.82 85.5359Z" fill="#C1282A"/>
<path d="M239.321 80.0136C240.331 78.7111 239.782 75.4919 241.734 74.8786C246.292 73.4469 246.86 75.6711 248.026 79.3001L248.002 79.4279C247.263 80.6601 247.168 81.0054 245.826 81.5611L245.631 81.5164C243.08 81.0536 241.534 82.5126 239.57 80.3029L239.321 80.0136Z" fill="#B91D1D"/>
<path d="M239.57 80.3027C243.07 79.541 244.892 80.1582 248.003 79.4277C247.264 80.66 247.168 81.0052 245.826 81.561L245.631 81.5162C243.081 81.0535 241.535 82.5125 239.57 80.3027Z" fill="#D52D29"/>
<path d="M284.45 219.841C288.143 221.007 295.088 221.122 298.558 219.182C299.57 219.226 305.203 221.907 307.913 222.399C314.485 223.592 319.718 224.113 326.465 223.339C328.038 223.159 332.205 222.321 333.24 222.262L333.49 222.627L332.673 222.871L332.565 223.365C330.955 223.267 327.678 225.252 325.39 225.464C320.81 225.887 316.318 225.917 311.715 226.215C310.195 225.883 308.733 225.603 307.268 225.068C298.948 224.784 297.915 227.516 288.98 223.484L286.97 222.679C288.57 222.212 288.655 223.04 288.988 222.883C290.48 222.18 292.933 221.472 294.448 220.927C290.965 221.267 287.49 221.831 284.27 220.139L284.45 219.841Z" fill="#EF2223"/>
<path d="M288.98 223.485L289.317 223.435C292.232 222.989 298.745 220.298 300.617 221.898C302.632 223.62 305.842 223.684 307.267 225.069C298.947 224.785 297.915 227.517 288.98 223.485Z" fill="#B91D1D"/>
<path d="M299.823 143.078C300.948 143.203 300.47 143.285 301.095 142.271C301.568 142.078 301.96 141.917 302.272 141.79C304.635 146.131 311.222 145.207 315.517 144.939C329.145 144.089 335.453 145.986 346.878 152.807L346.81 153.794C345.06 153.222 344.638 151.256 342.57 151.678L342.34 151.929C344.142 152.784 344.91 153.98 346.005 155.604L346.065 156.111L345.867 156.27C344.9 154.982 343.413 153.131 342.075 152.284C333.313 146.736 311.975 144.635 303.365 149.565C302.535 146.809 301.733 145.2 299.823 143.078Z" fill="#EF2223"/>
<path d="M248.026 79.3002C250.605 79.338 253.555 78.7835 256.14 78.7212C263.282 78.3575 270.377 77.6035 277.525 77.1455C283.787 76.7437 285.69 74.741 292.02 78.5805C290.742 78.4692 291.027 78.301 290.105 78.8835L290.572 79.0075C289.102 79.5727 290.177 78.7197 289.095 79.2677C288.067 79.1665 285.93 78.733 285.082 78.777C281.267 78.9745 277.252 79.3842 273.44 79.6865L257.377 80.8415C253.855 81.1042 249.266 81.568 245.826 81.5612C247.168 81.0055 247.263 80.6602 248.002 79.428L248.026 79.3002Z" fill="#EF2223"/>
<path d="M43.9533 128.114L44.0055 128.548C43.0585 129.387 40.6995 131.246 40.5665 132.343C40.6815 132.447 40.7963 132.552 40.911 132.657C41.8658 131.567 43.6128 129.18 44.8898 129.034C45.2445 129.121 45.1913 129.069 45.4875 129.257C41.9328 131.789 40.8475 133.416 39.742 137.71C38.7323 141.633 43.303 153.335 45.4893 156.291C47.3108 158.753 50.0613 160.363 53.1003 160.744C56.0243 161.133 58.4293 160.47 61.1825 159.628C60.5465 161.109 57.6003 160.749 56.387 161.716C56.8725 161.984 58.456 161.666 59.1143 161.582C55.0805 163.222 55.1598 163.767 50.7538 162.91C48.5463 162.107 44.7583 159.108 43.6705 157.114C38.6473 147.909 33.425 135.457 43.9533 128.114Z" fill="#FE1C13"/>
<path d="M134.642 81.7864C136.493 77.9997 138.487 74.3302 143.464 76.8539C144.333 77.2947 145.516 78.0044 146.043 78.8222C145.668 79.5249 145.503 79.6922 145.521 80.4537L145.738 80.6664C143.705 80.9382 142.198 81.4027 140.293 82.1737C137.549 81.8999 138.33 83.3042 134.642 81.7864Z" fill="#C1282A"/>
<path d="M253.16 213.952C254.043 225.349 263.192 223.475 271.487 222.348L271.71 222.723L270.855 223.084L271.267 223.38C269.882 224.801 262.97 225.951 260.8 226.058C258.255 226.184 258.938 224.463 256.198 223.876C255.748 223.457 255.59 223.238 255.227 222.761C254.447 221.669 251.873 219.682 252.02 218.581C252.88 218.753 252.763 218.874 253.41 218.583C253.495 217.846 252.775 215.798 252.37 215.077C250.762 214.929 250.727 216.099 248.724 215.867C250.202 215.184 251.623 214.498 253.16 213.952Z" fill="#EF2223"/>
<path d="M72.75 172.056C74.7545 170.437 73.3998 171.335 75.116 170.913C73.8295 178.276 71.3935 188.272 69.5953 195.691C69.2333 194.493 69.0565 193.594 68.2653 192.621C69.8183 186.906 71.0473 177.501 72.6623 172.495L72.75 172.056Z" fill="#EF2223"/>
<path d="M157.615 247.849C162.888 250.965 165.52 250.705 171.22 248.522C176.321 251.657 183.073 248.56 188.572 247.875L188.835 248.172C187.652 248.904 186.399 249.6 185.189 250.292C179.675 251.215 176.121 252.14 170.532 251.192C170.061 251.112 164.127 252.96 163.053 252.932C163.127 253.04 159.611 250.767 159.118 250.37L159.109 250.057C162.644 251.04 161.869 253.72 166.908 250.962C167.484 250.647 169.029 250.772 169.45 250.252C168.127 249.392 166.004 250.985 164.822 250.905C162.705 250.76 159.062 249.845 157.57 248.289L157.615 247.849Z" fill="#EF2223"/>
<path d="M68.2653 192.621C69.0565 193.595 69.2333 194.494 69.5953 195.692L68.8693 198.506C68.2338 200.894 67.4618 204.011 67.041 206.436C66.5875 208.665 66.1005 210.887 65.5803 213.102C65.0893 212.409 64.8998 211.819 64.5853 211.037L64.1013 210.944C65.497 206.996 65.2173 205.265 65.7073 201.198C65.8303 199.698 66.686 197.502 67.2 196.021C67.483 194.954 67.9225 193.691 68.2653 192.621Z" fill="#FE1C13"/>
<path d="M134.642 81.7871C138.33 83.3049 137.55 81.9006 140.293 82.1744C135.615 84.1366 131.537 85.9051 130.687 91.6164C130.001 89.6539 129.396 91.1676 128.201 90.3624L128.226 89.9189C129.073 89.5521 129.193 88.6119 129.641 87.8789C131.015 85.6306 132.945 83.7989 134.642 81.7871Z" fill="#EF2223"/>
<path d="M153.932 74.9199C154.911 75.4102 155.006 75.3559 155.547 76.4782C152.895 78.1034 151.965 78.7277 150.736 81.5709C149.402 82.3172 147.191 81.1482 145.738 80.6672L145.521 80.4544C145.503 79.6929 145.669 79.5257 146.043 78.8229C146.572 79.2272 146.832 79.5799 147.485 79.5714C149.391 79.5467 152.506 76.2367 153.932 74.9199Z" fill="#FE1C13"/>
<path d="M162.185 74.9208C165.436 73.4093 165.04 74.7351 167.442 73.9443C168.311 75.0183 168.814 75.2411 170.019 75.9438C170.269 76.6136 170.486 76.7828 170.294 77.2843L169.529 77.3848L169.357 77.7741C169.503 78.1068 169.796 78.7186 169.891 79.0398C167.094 76.2603 166.082 75.0851 162.185 74.9208Z" fill="#EF2223"/>
<path d="M153.932 74.9191L155.405 73.5801C157.31 73.6076 160.08 73.6116 161.636 74.9458C159.593 75.3533 157.465 75.6873 155.547 76.4773C155.006 75.3551 154.911 75.4093 153.932 74.9191Z" fill="#D52D29"/>
<path d="M289.095 79.2672C290.177 78.7192 289.102 79.5722 290.572 79.007L290.105 78.883C291.027 78.3005 290.742 78.4687 292.02 78.58C294.042 79.713 295.092 80.5205 296.97 81.6982L296.462 82.0847C295.597 81.6482 294.742 81.1745 293.825 80.8717L293.407 81.0252C293.88 82.3007 296.125 83.1532 295.647 84.6507C293.54 81.7187 292.18 80.9052 289.095 79.2672Z" fill="#FE1C13"/>
<path d="M194.817 111.607C196.945 111.852 198.406 115.023 199.81 114.818C200.822 112.893 199.471 109.948 199.193 107.66L199.555 107.302C200.273 110.009 201.379 114.779 201.804 117.487C200.456 116.646 196.08 112.876 194.817 111.607Z" fill="#FE1C13"/>
<path d="M126.599 89.2383L128.226 89.9188L128.201 90.3623C129.396 91.1675 130.001 89.6538 130.687 91.6163C130.59 92.163 130.504 92.4633 130.349 92.9828L129.831 93.259C128.456 93.1848 126.724 91.8788 125.455 91.0938C125.985 90.5745 126.255 89.9083 126.599 89.2383Z" fill="#FE1C13"/>
<path d="M153.895 216.792C153.064 214.25 150.849 207.915 151.055 205.222C151.191 203.442 158.925 201.489 160.658 201.763C161.915 202.541 162.344 204.569 162.822 206.024C163.061 206.996 163.479 208.499 163.631 209.44C163.787 209.971 164.156 211.081 164.188 211.575C163.793 214.204 165.01 214.612 165.122 216.371C164.833 216.334 164.544 216.294 164.256 216.249C163.25 221.303 157.775 233.197 154.688 237.478C150.757 234.62 140.737 226.292 143.882 238.366C144.718 241.574 145.944 244.657 146.074 248.011C144.053 249.893 137.429 252.852 135.232 250.155C134.006 248.648 133.273 244.297 132.798 242.198L131.872 242.64C131.251 248.386 129.312 252.805 124.694 256.425C117.258 262.25 104.855 264.56 96.7155 259.137C96.7162 259.245 96.715 259.355 96.7182 259.462C96.76 260.92 97.4818 262.692 97.7125 264.205C98.5768 269.872 95.7845 274.857 92.1018 278.967C90.4285 280.837 88.514 282.605 86.4245 283.992C81.045 287.56 74.9275 290.337 69.194 293.31C64.5228 295.73 59.789 298.52 54.9665 300.602C53.827 301.095 52.4832 301.56 51.234 301.625C50.2237 301.677 49.6402 301.122 48.9585 300.45C45.8575 297.39 36.6237 277.525 33.7377 271.912L25.6552 256.487C23.8375 252.99 20.7578 247.408 19.7959 243.775C22.0716 238.645 27.9892 236.858 33.098 234.57C39.5015 231.127 45.9332 227.586 52.5297 224.556C57.7205 222.173 64.8268 221.218 70.3923 222.782C76.234 224.423 79.8503 229.818 81.8023 235.204C84.0093 243.501 78.5803 244.57 88.6428 249.618C86.9645 243.523 86.2583 238.991 88.4303 232.977C93.2293 221.215 109.839 216.083 120.98 221.54C124.648 223.379 126.157 225.532 128.735 228.654C127.956 225.673 127.011 222.596 126.147 219.628C123.562 211.656 125.197 210.1 133.521 209.31C135.045 210.226 136.124 211.005 137.544 212.046C141.403 214.656 144.991 217.412 148.704 220.214C151.195 222.094 154.253 224.581 156.982 226.003C156.012 223.232 154.612 219.564 153.895 216.792Z" fill="#81BA29"/>
<path d="M77.9845 264.778L78.4292 265.013C78.7317 264.835 80.4197 264.383 80.7707 264.33C84.2992 263.795 93.6475 258.758 96.7155 259.138C96.7162 259.245 96.715 259.355 96.7182 259.463C96.76 260.92 97.4817 262.693 97.7125 264.205C98.5767 269.873 95.7845 274.858 92.1017 278.968C90.4285 280.838 88.514 282.605 86.4245 283.993C81.045 287.56 74.9275 290.338 69.194 293.31C64.5227 295.73 59.789 298.52 54.9665 300.603C53.827 301.095 52.4832 301.56 51.234 301.625C50.2237 301.678 49.6402 301.123 48.9585 300.45C45.8575 297.39 36.6237 277.525 33.7377 271.913L34.2215 271.34C39.2922 270.023 48.1947 270.475 53.6387 269.538C54.4585 269.398 54.8842 270.11 55.4185 270.678C56.1332 268.988 58.703 266.805 60.3632 266.088C66.7885 263.315 72.6485 256.7 77.9845 264.778Z" fill="#70BF35"/>
<path d="M55.4185 270.677C56.1333 268.987 58.703 266.805 60.3633 266.087C66.7885 263.315 72.6485 256.7 77.9845 264.777C78.2668 265.655 78.6953 266.88 78.9045 267.75C76.897 273.607 71.0605 275.015 66.1353 277.9C64.7983 278.685 62.2258 279.652 60.6988 279.185C57.9393 278.202 55.54 273.405 55.4185 270.677Z" fill="#FDFDFD"/>
<path d="M33.098 234.571C39.5015 231.128 45.9333 227.586 52.5298 224.557C57.7205 222.173 64.8268 221.218 70.3923 222.782C76.234 224.424 79.8503 229.818 81.8023 235.205C77.6755 235.67 69.9645 236.748 66.1288 236.942C60.6683 237.219 36.7368 237.207 33.098 234.571Z" fill="#A0D123"/>
<path d="M88.4302 232.977C93.2292 221.216 109.839 216.084 120.98 221.54C117.362 225.449 93.9067 234.117 88.4302 232.977Z" fill="#A0D123"/>
<path d="M153.895 216.792C153.065 214.25 150.849 207.915 151.055 205.222C151.191 203.442 158.925 201.489 160.658 201.763C161.915 202.541 162.345 204.569 162.822 206.024C163.061 206.996 163.479 208.499 163.631 209.44L163.223 209.301C162.896 208.175 161.826 204.005 161.395 203.298C160.093 204.287 157.24 209.003 156.512 210.52C156.106 211.366 153.741 213.173 153.729 214.294C153.719 215.273 154.259 215.809 153.895 216.792Z" fill="#70BF35"/>
<path d="M126.147 219.629C123.562 211.657 125.197 210.1 133.521 209.311C135.045 210.226 136.124 211.006 137.544 212.047C134.081 214.446 129.082 217.169 126.147 219.629Z" fill="#A0D123"/>
<path d="M131.872 242.64C131.891 241.887 131.909 241.693 132.089 240.963L132.345 241.022L132.798 242.199L131.872 242.64Z" fill="#E1F2BE"/>
<path d="M108.125 231.783C113.056 231.022 117.668 234.406 118.423 239.337C119.177 244.269 115.787 248.877 110.855 249.625C105.931 250.37 101.334 246.989 100.581 242.067C99.828 237.144 103.204 232.542 108.125 231.783Z" fill="#FDFDFD"/>
<path d="M59.5078 239.017C63.1735 239.511 66.1665 243.104 64.2565 246.339C62.229 249.774 53.4638 253.742 49.8638 254.837C46.038 254.96 42.8308 250.625 44.7985 247.538C47.0318 244.035 55.648 240.147 59.5078 239.017Z" fill="#FDFDFD"/>
<path d="M170.29 141.843C169.127 135.515 167.58 129.303 166.215 123.034C165.755 120.92 163.441 112.179 164.559 110.824C166.43 108.557 175.111 107.151 178.15 106.756C180.837 108.22 187.354 113.613 189.738 115.909L189.412 115.894C189.021 115.873 188.982 115.87 188.632 115.671C188.345 117.037 186.574 120.376 185.929 121.862C183.854 126.642 181.847 131.393 180.044 136.284C178.569 139.822 175.113 156.139 173.614 157.856C173.017 162.914 170.57 169.262 166.542 172.448L166.208 172.874C158.282 180.16 151.222 181.728 140.915 182.525C147.553 198.466 146.125 197.082 130.304 202.858L117.515 207.635L92.6102 216.981C89.254 218.231 80.1022 222.213 76.5425 222.14C73.339 222.074 71.341 217.848 71.9487 214.441C73.0017 208.536 74.4277 202.465 75.7905 196.48L83.2917 163.779C85.5437 165.382 100.487 170.601 103.505 170.395C104.07 169.938 104.088 169.409 104.262 168.669L104.589 168.719C104.204 172.875 102.33 176.731 102.086 182.423C105.125 189.808 110.538 186.207 115.982 184.189C120.515 182.492 125.063 180.836 129.626 179.222C125.829 176.84 122.332 172.803 120.295 168.898C112.743 154.416 116.762 139.493 131.409 131.767C133.662 129.937 142.012 128.05 145.133 127.733C157.822 126.827 163.82 131.58 170.29 141.843Z" fill="#1078BA"/>
<path d="M170.29 141.843C169.127 135.515 167.58 129.303 166.215 123.034C165.755 120.92 163.441 112.179 164.559 110.824C166.43 108.557 175.111 107.151 178.15 106.756C180.837 108.22 187.354 113.613 189.738 115.909L189.412 115.894C189.021 115.873 188.982 115.87 188.632 115.671C188.345 117.037 186.574 120.376 185.929 121.862C183.854 126.642 181.847 131.393 180.044 136.284C178.569 139.822 175.113 156.139 173.614 157.856C173.017 162.914 170.57 169.262 166.542 172.448C166.765 171.798 166.774 171.83 166.722 171.153C165.147 169.663 155.932 161.858 154.418 161.188C156.162 158.573 156.725 155.344 155.969 152.293C155.213 149.242 153.207 146.65 150.444 145.152C147.304 143.45 143.541 143.35 140.315 144.882L139.696 144.82C138.815 142.515 131.678 134.38 131.409 131.767C133.662 129.937 142.012 128.05 145.133 127.733C157.822 126.827 163.82 131.58 170.29 141.843Z" fill="#1283C0"/>
<path d="M131.409 131.767C133.662 129.937 142.012 128.05 145.133 127.733C144.925 131.306 151.021 139.177 150.444 145.152C147.304 143.45 143.541 143.35 140.315 144.882L139.696 144.82C138.815 142.515 131.678 134.38 131.409 131.767Z" fill="#1499D6"/>
<path d="M140.315 144.882C143.541 143.349 147.304 143.45 150.444 145.152C153.207 146.65 155.213 149.242 155.969 152.293C156.725 155.344 156.162 158.572 154.418 161.188C153.634 162.364 152.634 163.38 151.471 164.184C148.007 166.577 143.492 166.822 139.789 164.818C136.086 162.813 133.823 158.898 133.934 154.688C134.045 150.479 136.512 146.689 140.315 144.882Z" fill="#FDFDFD"/>
<path d="M154.418 161.188C155.932 161.857 165.147 169.663 166.722 171.152C166.774 171.829 166.765 171.797 166.542 172.447L166.208 172.874C162.745 170.08 153.586 168.048 150.706 165.354L151.471 164.184C152.634 163.38 153.634 162.363 154.418 161.188Z" fill="#0E6CAE"/>
<path d="M229.524 172.521C239.814 169.72 249.954 171.38 256 180.95C256.222 179.527 256.27 178.199 257.542 177.354C259.33 176.166 262.882 176.375 265.167 176.172C272.24 182.418 278.185 190.424 284.635 196.52C284.12 193.059 281.75 178.214 282.782 175.507C284.515 173.528 290.487 173.655 293.067 173.82C294.1 177.306 295.702 196.188 295.622 200.065C298.48 198.37 299.425 197.566 302.67 196.862C305.32 197.884 307.762 199.225 310.335 200.403C314.862 202.477 326.79 204.794 329.117 198.344C329.307 197.8 329.452 197.242 329.55 196.675C332.145 196.849 339.805 206.501 343.34 207.754C342.345 209.016 341.01 210.726 339.832 211.748C335.15 215.811 328.067 217.219 321.972 217.302C315.415 217.392 308.45 216.668 302.495 213.722C301.13 213.046 298.695 210.736 297.205 211.002C296.88 211.496 296.88 211.718 296.775 212.29C296.625 212.626 296.435 212.917 296.245 213.235C294.42 214.383 290.125 214.439 287.897 214.489C283.42 211.391 277.94 202.501 272.987 199.713C272.285 200.03 271.337 200.37 270.83 200.96C268.017 204.221 272.785 212.429 270.172 215.445C269.135 216.642 266.432 216.84 264.962 216.915C263.46 216.992 261.415 216.991 260.272 215.847C258.775 214.345 258.197 201.078 258.202 198.383C256.477 200.986 255.235 203.149 253.107 205.459C244.788 213.941 226.387 214.031 219.657 203.284C218.77 201.868 217.245 199.263 216.189 198.142C216.348 197.996 216.344 197.891 216.433 197.651C214.209 194.091 199.469 185.304 195.078 183.194C191.594 181.519 186.373 179.601 182.912 177.888C194.491 175.505 206.362 171.752 214.997 182.447C215.457 183.017 216.334 184.434 216.884 184.659C217.15 184.254 217.224 184.23 217.282 183.761C219.131 178.105 224.083 174.359 229.524 172.521Z" fill="#84B524"/>
<path d="M229.525 172.521C239.814 169.72 249.955 171.38 256 180.95C256.223 179.527 256.27 178.199 257.543 177.354C259.33 176.166 262.883 176.375 265.168 176.172C272.24 182.418 278.185 190.424 284.635 196.52C284.12 193.059 281.75 178.214 282.783 175.507C284.515 173.528 290.488 173.655 293.068 173.82C294.1 177.306 295.703 196.188 295.623 200.065C298.48 198.37 299.425 197.566 302.67 196.862C305.32 197.884 307.763 199.225 310.335 200.403C314.863 202.477 326.79 204.794 329.118 198.344C329.308 197.8 329.453 197.242 329.55 196.675C332.145 196.849 339.805 206.501 343.34 207.754C342.345 209.016 341.01 210.726 339.833 211.748C335.15 215.811 328.068 217.219 321.973 217.302C315.415 217.392 308.45 216.668 302.495 213.722C301.13 213.046 298.695 210.736 297.205 211.002C296.88 211.496 296.88 211.718 296.775 212.29C296.79 212.004 296.8 211.718 296.8 211.431C296.813 208.648 291.94 204.976 289.82 203.167C279.013 193.944 266.865 186.591 253.72 181.219C250.37 179.823 246.76 178.675 243.377 177.467C239.978 176.253 231.924 174.965 229.525 172.521Z" fill="#8ACC2E"/>
<path d="M182.912 177.888C194.491 175.505 206.362 171.752 214.997 182.447C215.457 183.017 216.334 184.434 216.884 184.66C217.15 184.255 217.224 184.231 217.282 183.761C220.283 184.384 225.536 187.708 229.2 188.71C227.944 192.499 229.488 196.654 232.914 198.703C236.341 200.752 240.731 200.147 243.476 197.248C245.345 199.522 252.21 203.373 253.107 205.459C244.788 213.941 226.387 214.031 219.657 203.285C218.77 201.868 217.245 199.263 216.189 198.143C216.348 197.996 216.344 197.891 216.433 197.652C214.209 194.091 199.469 185.304 195.078 183.194C191.594 181.519 186.373 179.601 182.912 177.888Z" fill="#A0D123"/>
<path d="M229.2 188.709C230.3 185.394 233.311 183.085 236.798 182.884C240.285 182.684 243.541 184.631 245.013 187.798C246.486 190.965 245.876 194.71 243.476 197.247C240.731 200.147 236.341 200.752 232.914 198.703C229.488 196.653 227.944 192.499 229.2 188.709Z" fill="#FDFDFD"/>
<path d="M180.759 178.309L182.912 177.888C186.374 179.601 191.594 181.519 195.078 183.194C199.469 185.304 214.209 194.091 216.433 197.651C216.344 197.891 216.348 197.996 216.189 198.142C215.242 203.675 218.377 203.97 221.455 207.697C224.289 211.128 225.722 216.814 225.016 221.217C223.37 231.074 214.309 235.075 205.805 237.597L188.468 241.202C185.676 242.038 181.132 242.787 178.188 243.329C174.539 244.001 174.158 242.542 171.985 240.88L171.823 240.758C170.716 242.192 167.952 243.158 166.215 243.533C162.357 244.365 157.964 239.976 154.688 237.478C157.775 233.197 163.25 221.303 164.256 216.249C164.544 216.294 164.833 216.335 165.122 216.371C165.01 214.612 163.793 214.204 164.188 211.575C164.156 211.081 163.787 209.972 163.631 209.441C163.479 208.499 163.061 206.996 162.822 206.024C163.399 206.142 163.195 206.123 163.858 205.712C164.438 204.891 164.432 204.526 164.564 203.557C163.471 199.894 162.29 193.763 161.564 189.97C160.16 182.749 161.81 182.192 168.275 181C169.931 180.532 171.188 180.228 172.876 179.898L174.187 179.585L176.298 179.245L176.456 179.214C177.528 178.905 179.596 178.548 180.759 178.309Z" fill="#81BA29"/>
<path d="M172.876 179.898L174.187 179.586C174.609 180.293 174.717 180.405 174.891 181.191C176.869 197.616 177.481 212.587 173.941 228.89C173.566 230.618 171.678 239.562 171.823 240.759C170.716 242.193 167.952 243.159 166.215 243.533C162.357 244.366 157.964 239.976 154.688 237.479C157.775 233.198 163.25 221.304 164.256 216.25C164.544 216.295 164.833 216.335 165.122 216.371C165.01 214.613 163.793 214.205 164.188 211.575C164.156 211.082 163.787 209.972 163.631 209.441C163.479 208.5 163.061 206.996 162.822 206.025C163.399 206.142 163.195 206.123 163.858 205.713C164.438 204.891 164.432 204.526 164.564 203.557C163.471 199.895 162.29 193.764 161.564 189.97C160.16 182.75 161.81 182.192 168.275 181.001C169.931 180.532 171.188 180.228 172.876 179.898Z" fill="#81B326"/>
<path d="M168.275 181.001C169.931 180.532 171.188 180.228 172.876 179.898C172.42 184.847 169.528 206.569 166.275 209.157C166.215 209.204 166.149 209.243 166.086 209.287C165.575 207.767 164.981 205.177 164.564 203.557C163.471 199.895 162.29 193.764 161.564 189.97C160.159 182.75 161.81 182.192 168.275 181.001Z" fill="#A8CE1A"/>
<path d="M161.564 189.97C160.159 182.75 161.81 182.192 168.275 181.001C167.363 183.129 163.392 188.785 161.564 189.97Z" fill="#A0D123"/>
<path d="M164.565 203.557C164.981 205.177 165.576 207.766 166.086 209.286C166.396 211.059 166.704 213.144 167.16 214.86L166.757 215.677C166.081 215.772 165.977 215.636 165.336 215.667C165.168 214.759 164.469 212.56 164.188 211.575C164.156 211.081 163.787 209.972 163.631 209.441C163.479 208.499 163.061 206.996 162.822 206.024C163.399 206.142 163.195 206.123 163.858 205.712C164.439 204.891 164.432 204.526 164.565 203.557Z" fill="#E1F2BE"/>
<path d="M167.16 214.86C167.752 217.949 168.397 221.028 169.094 224.094L168.131 224.257C167.806 222.748 165.918 217.471 165.336 215.667C165.976 215.637 166.08 215.772 166.757 215.678L167.16 214.86Z" fill="#BCE08D"/>
<path d="M168.131 224.256L169.094 224.094C169.195 224.784 169.38 226.045 169.004 226.603C168.424 226.009 168.332 225.108 168.131 224.256Z" fill="#A0D123"/>
<path d="M174.187 179.585L176.298 179.245C176.368 179.576 176.53 180.238 176.56 180.543C178.734 184.836 180.026 188.383 181.005 193.104C181.024 193.194 182.057 193.751 182.185 193.809C179.255 197.509 181.642 201.343 185.861 201.681L184.358 201.905C183.895 203.562 186.24 210.122 186.361 212.344C186.42 213.409 186.437 215.117 187.037 215.939C183.631 219.718 186.806 222.443 188.02 225.558C191.095 227.333 197.637 225.154 201.309 224.319C201.762 224.438 201.867 224.356 202.044 224.772C203.659 228.559 204.892 233.659 205.805 237.597L188.468 241.202C185.677 242.038 181.132 242.787 178.188 243.329C174.539 244.001 174.158 242.541 171.985 240.88L171.823 240.758C171.678 239.561 173.567 230.617 173.942 228.889C177.481 212.586 176.869 197.616 174.892 181.19C174.717 180.404 174.609 180.292 174.187 179.585Z" fill="#90CD2C"/>
<path d="M201.309 224.319C201.762 224.438 201.867 224.356 202.044 224.772C203.659 228.559 204.892 233.659 205.805 237.597L188.468 241.202C188.691 234.991 188.039 230.997 188.02 225.558C191.095 227.333 197.637 225.154 201.309 224.319Z" fill="#70BF35"/>
<path d="M174.187 179.585L176.298 179.245C176.368 179.576 176.53 180.238 176.56 180.543C175.362 180.711 175.613 180.493 174.892 181.19C174.717 180.404 174.609 180.292 174.187 179.585Z" fill="#A0D123"/>
<path d="M197.628 212.857C200.213 212.338 202.436 211.796 204.833 213.418C206.222 214.339 207.162 215.798 207.428 217.444C208.077 221.735 204.565 223.211 201.309 224.32C197.637 225.155 191.094 227.334 188.02 225.559C186.805 222.443 183.631 219.718 187.037 215.94C189.697 214.183 194.375 213.515 197.628 212.857Z" fill="#FDFDFD"/>
<path d="M193.856 190.256C199.454 189.716 202.332 193.081 199.516 198.218C196.786 199.808 195.299 199.977 192.246 200.582C190.369 200.903 187.652 201.278 185.86 201.682C181.642 201.343 179.255 197.51 182.185 193.809C183.877 192.45 184.249 192.272 186.368 191.869C188.765 191.237 191.408 190.751 193.856 190.256Z" fill="#FDFDFD"/>
<path d="M176.456 179.214C177.528 178.905 179.596 178.548 180.759 178.309C181.909 181.164 192.32 187.534 193.856 190.256C191.408 190.751 188.765 191.237 186.368 191.869C184.249 192.272 183.877 192.45 182.185 193.809C182.056 193.751 181.024 193.194 181.005 193.104C180.026 188.383 178.734 184.836 176.56 180.543C176.53 180.238 176.368 179.576 176.298 179.245L176.456 179.214Z" fill="#A0D123"/>
<path d="M176.456 179.214C177.282 179.21 177.806 179.056 178.385 179.794C180.029 181.889 185.837 189.809 186.368 191.869C184.249 192.272 183.877 192.45 182.185 193.809C182.056 193.751 181.024 193.195 181.005 193.104C180.026 188.383 178.734 184.836 176.56 180.544C176.53 180.238 176.368 179.576 176.298 179.246L176.456 179.214Z" fill="#70BF35"/>
<path d="M231.008 124.964C230.286 114.533 228.757 103.999 228.867 93.553C228.884 91.88 230.845 89.4403 232.483 89.2635C243.686 88.0545 255.023 87.4335 266.258 86.446C271.518 85.9835 276.938 85.5088 282.17 85.2428C283.883 85.1578 285.595 85.2245 287.295 85.442C290.4 85.8095 290.845 91.6455 291.14 93.6615C292.813 105.134 286.41 104.319 277.695 104.871L264.267 105.735C261.45 105.909 258.78 105.864 256.08 106.752C250.095 108.721 251.568 116.769 257.265 117.478C260.013 117.782 263.517 117.307 266.36 117.08L279.318 116.087C281.498 115.926 283.87 115.556 286.035 115.928C287.29 116.143 288.435 116.655 289.253 117.665C291.253 120.137 291.612 125.804 291.172 128.843C290.942 130.433 290.25 132.133 288.895 133.085C284.622 136.086 263.585 133.977 257.215 137.118C256.135 137.649 255.508 138.408 254.8 139.34C253 138.764 249.965 139.36 247.993 139.602C234.979 141.199 221.23 144.411 209.474 150.337C208.454 150.851 208.392 151.253 208.04 152.3L198.607 144.485C199.792 143.512 200.912 142.468 202.068 141.46C205.595 138.384 224.857 124.938 228.268 125.288C228.316 125.293 228.363 125.303 228.411 125.31L228.947 124.912C229.187 126.099 229.414 127.304 229.719 128.474C230.491 129.011 230.673 130.678 230.902 131.707C231.046 130.664 230.933 126.519 231.008 124.964Z" fill="#1286C4"/>
<path d="M231.007 124.965C231.279 126.819 232.22 135.416 232.249 137.163C231.291 134.899 229.704 130.973 229.719 128.474C230.491 129.011 230.673 130.678 230.902 131.707C231.046 130.665 230.932 126.519 231.007 124.965Z" fill="#A4D0EA"/>
<path d="M74.5115 125.125L97.7325 116.364C99.3908 115.748 101.088 115.085 102.756 114.505C108.431 112.531 112.354 109.914 115.761 116.611C115.582 120.162 113.817 127.129 112.977 130.867L107.925 153.245C107.469 155.536 105.188 167.411 104.589 168.718L104.263 168.668C104.088 169.408 104.07 169.937 103.505 170.394C100.487 170.6 85.5438 165.382 83.2918 163.778C84.301 159.396 85.339 154.921 86.0373 150.484L85.9503 150.32C84.9238 148.421 83.8928 146.789 81.661 146.191C75.9878 144.671 57.8368 156.202 52.9388 154.133C51.1203 153.365 49.9598 151.485 49.197 149.753C47.7348 146.431 45.0088 140.728 46.579 137.119C46.9898 136.175 47.5935 135.543 48.467 135.023C51.5308 133.2 55.3818 132.153 58.7275 130.927C63.9778 128.963 69.239 127.029 74.5115 125.125Z" fill="#1286C4"/>
<path d="M74.5115 125.125L97.7325 116.364C99.3907 115.748 101.088 115.085 102.755 114.505C108.431 112.531 112.354 109.914 115.761 116.611C115.582 120.162 113.816 127.129 112.976 130.867L107.925 153.245C97.06 149.656 82.5512 133.484 74.5115 125.125Z" fill="#1499D6"/>
<path d="M208.04 152.3C208.392 151.253 208.454 150.851 209.474 150.337C221.23 144.411 234.979 141.199 247.993 139.602C249.965 139.36 253 138.764 254.8 139.34C253.632 143.183 255.22 147.769 259.237 147.938C268.867 148.343 279.485 146.494 289.192 146.092C294.985 145.851 296.867 147.788 297.227 153.398C297.642 159.542 299.052 164.588 290.83 165.219C274.435 166.477 257.99 167.705 241.578 168.79C234.659 169.244 233.974 166.668 233.452 160.759C230.243 161.785 223.07 164.245 220.369 162.476C216.486 159.933 211.799 155.378 208.04 152.3Z" fill="#0E6CAE"/>
<path d="M189.738 115.908C193.1 117.908 205.775 132.824 209.033 125.909C211.371 120.947 204.366 107.335 206.13 101.773C206.866 99.4548 217.755 97.315 220.146 97.6868C221.668 97.9235 223.147 98.7985 223.518 100.312C225.517 108.468 227.101 116.721 228.947 124.912L228.411 125.31C228.363 125.303 228.316 125.293 228.268 125.289C224.857 124.939 205.595 138.385 202.068 141.461C200.913 142.468 199.792 143.513 198.607 144.485C197.432 143.621 196.427 142.847 195.14 142.141C184.52 145.196 197.018 161.26 194.08 168.324C193.108 170.661 180.49 173.324 178.434 172.052C174.714 169.748 175.928 160.908 173.614 157.856C175.114 156.139 178.57 139.822 180.044 136.284C181.847 131.393 183.854 126.642 185.929 121.862C186.575 120.375 188.345 117.037 188.633 115.671C188.982 115.87 189.021 115.873 189.412 115.894L189.738 115.908Z" fill="#1384C3"/>
<path d="M295.952 173.783C294.752 162.904 302.347 154.216 313.205 153.308C320.487 152.833 328.13 153.167 334.985 155.899C336.417 156.438 337.582 157.147 338.795 158.062C341.87 160.385 341.782 165.23 339.395 168.003C336.35 171.537 332.73 169.884 329.027 168.763C324.257 167.32 317.71 165.834 313.602 169.517C312.392 170.614 313.057 173.841 314.382 174.636C317.54 176.788 321.76 177.044 325.39 177.933C334.387 179.76 344.087 184.222 345.74 194.294C346.55 199.23 345.91 203.412 343.34 207.754C339.805 206.501 332.145 196.849 329.55 196.675C326.94 193.816 326.165 193.292 322.385 192.052C310.475 189.878 297.725 188.335 295.952 173.783Z" fill="#88B622"/>
<path d="M295.953 173.783C301.053 175.758 322.003 186.961 322.385 192.052C310.475 189.878 297.725 188.335 295.953 173.783Z" fill="#A0D123"/>
<path d="M160.634 81.5928L163.343 81.4023C166.406 84.8608 169.171 88.9443 172.054 92.5888C173.254 94.1056 177.65 99.2413 177.123 100.904C175.905 102.122 174.234 102.418 172.588 102.854C171.314 101.97 170.214 100.833 169.098 99.7518C166.017 100.335 162.764 101.236 159.671 101.933C158.944 106.176 158.791 106.299 154.617 107.148C155.76 109.884 156.936 112.605 158.146 115.312C155.329 117.297 153.806 117.829 150.644 119.044C148.5 116.45 145.078 104.888 142.596 105.131C141.162 106.868 139.801 112.04 138.74 114.615C136.713 113.914 129.937 109.456 128.59 111.464C128.512 113.403 131.831 120.526 132.751 122.727C133.091 123.69 133.413 124.695 133.738 125.667C131.346 127.3 129.089 128.194 126.412 129.229C124.625 126.866 122.066 119.96 120.819 116.977C118.495 111.537 116.203 106.084 113.944 100.617C115.985 99.1698 120.046 97.6828 122.516 96.6968C125.339 98.1666 127.985 99.9018 130.759 101.448C132.006 102.143 132.544 102.458 133.839 102.071C135.155 100.849 136.942 92.8956 137.78 90.4111C139.581 89.5208 144.076 87.0078 145.912 87.4113C147.371 88.8423 151.639 99.7966 152.989 102.701C154.452 97.6281 155.253 88.2566 157.073 82.9776C157.332 82.2248 159.774 81.7796 160.634 81.5928Z" fill="#DB372A"/>
<path d="M162.283 91.4298C163.349 91.188 164.416 91.8305 164.701 92.886C164.986 93.9413 164.387 95.0333 163.344 95.361C162.631 95.5853 161.852 95.4005 161.315 94.88C160.778 94.3595 160.57 93.5867 160.772 92.8667C160.974 92.1467 161.554 91.595 162.283 91.4298Z" fill="#FDFDFD"/>
<path d="M168.289 275.245C172.741 277.68 174.73 283.953 169.16 285.435C164.642 284.355 163.028 282.428 165.951 278.15C166.826 276.87 167.542 276.845 168.289 275.245ZM167.599 280.695L167.919 280.205L167.715 280.01L167.343 280.16L167.258 280.895L167.428 281.018L167.599 280.695Z" fill="#B91D1D" fill-opacity="0.988235"/>
<path d="M167.343 280.16L167.715 280.01L167.919 280.205L167.599 280.695L167.428 281.017L167.258 280.895L167.343 280.16Z" fill="#C1282A" fill-opacity="0.870588"/>
<path d="M210.289 72.916C212.125 74.13 215.196 76.3895 215.297 78.6453C215.669 86.9173 206.265 89.613 203.303 80.4178C204.37 76.4103 205.624 75.642 209.048 73.1923L210.289 72.916ZM211.052 78.478C210.777 77.1403 210.237 77.411 208.947 77.4548C209.531 78.4183 209.352 78.5153 210.22 78.73L211.052 78.478Z" fill="#C1282A"/>
<path d="M208.947 77.4549C210.237 77.4112 210.778 77.1404 211.052 78.4782L210.221 78.7302C209.352 78.5154 209.532 78.4184 208.947 77.4549Z" fill="#C1282A" fill-opacity="0.568627"/>
<path d="M194.115 67.9533C196.746 67.3003 199.481 68.5383 200.726 70.9461C201.971 73.3538 201.4 76.3013 199.347 78.0706C198.622 78.6948 197.756 79.132 196.823 79.344C193.692 80.0555 190.572 78.1128 189.83 74.9893C189.087 71.8658 190.999 68.7271 194.115 67.9533Z" fill="#C1282A" fill-opacity="0.956863"/>
<path d="M169.239 268.49C169.514 263.675 170.35 262.278 175.147 261.048C176.743 261.638 177.474 261.838 178.764 262.933C181.585 265.33 180.901 270.315 177.934 272.32C177.005 272.818 175.896 273.515 174.969 274.06C171.979 272.538 170.599 271.703 169.239 268.49Z" fill="#C1282A"/>
<path d="M106.494 102.847C106.244 101.93 106.23 101.756 105.742 100.963C104.434 100.72 100.69 104.148 98.3798 102.807C91.7058 98.9322 95.366 89.0227 103.512 92.8544C104.873 94.5269 105.422 96.6002 106.163 97.2699C105.98 98.1327 105.791 98.5817 106.078 99.4049L106.467 99.6227C107.064 99.4434 107.097 99.4679 107.604 99.0659C107.994 99.4654 107.844 99.2182 107.898 99.9139C106.486 101.148 106.401 100.84 106.494 102.847Z" fill="#C1282A" fill-opacity="0.988235"/>
<path d="M207.252 260.718C208.476 260.768 211.686 261.243 212.213 261.223C218.217 265.315 210.295 277.475 203.819 267.623C203.908 263.625 203.971 263.03 207.252 260.718ZM210.133 267.195C210.126 266.005 210.322 265.875 209.756 265L209.266 264.84C209.097 266.103 208.974 265.753 209.403 266.695L210.133 267.195Z" fill="#C1282A" fill-opacity="0.988235"/>
<path d="M209.267 264.84L209.756 265C210.323 265.875 210.127 266.005 210.133 267.195L209.403 266.695C208.974 265.752 209.097 266.102 209.267 264.84Z" fill="#C1282A" fill-opacity="0.901961"/>
<path d="M229.103 252.197C230.426 252.945 231.543 253.407 232.931 253.997C235.651 259.237 234.568 261.765 229.415 264.525C226.458 263.36 224.997 261.16 223.71 258.422C225.145 255.55 226.693 254.192 229.103 252.197Z" fill="#C1282A"/>
<path d="M188.665 268.015C191.055 267.838 192.927 269.428 193.558 271.675C194.009 273.338 193.776 275.113 192.909 276.603C191.99 278.168 190.918 278.41 189.31 278.82C187.376 279.13 186.085 277.848 184.678 276.718C183.653 271.8 183.981 269.978 188.665 268.015Z" fill="#C1282A"/>
<path d="M256.108 231.577C259.635 231.57 260.005 233.222 261.77 235.885C260.44 238.883 259.897 239.915 257.15 241.625C253.94 242.028 253.61 241.096 251.592 238.845C250.985 235.013 251.733 232.125 256.108 231.577Z" fill="#C1282A"/>
<path d="M154.371 269.712C155.633 269.535 156.235 269.76 157.468 270.072C159.422 272.747 160.642 276.8 157.301 279.06C156.225 279.792 154.888 280.027 153.628 279.707C152.354 279.377 151.279 278.522 150.67 277.355C149.585 275.25 150.139 273.43 150.775 271.335C152.148 270.41 152.806 270.14 154.371 269.712Z" fill="#C1282A"/>
<path d="M61.11 177.03C67.6583 176.458 68.1793 182.756 64.185 186.142C62.4403 186.169 61.462 185.935 59.7573 185.562C57.0848 183.264 58.0428 180.948 58.4925 177.795L61.11 177.03Z" fill="#B91D1D"/>
<path d="M104.901 79.0377C105.519 78.9935 106.92 78.944 107.529 79.0327C108.683 79.2047 109.724 79.8255 110.423 80.76C112.492 83.4887 110.739 86.4972 108.386 88.2337C107.771 88.4757 107.182 88.6787 106.508 88.633C105.512 88.5727 104.587 88.0987 103.957 87.3257C101.974 84.9145 102.376 80.9895 104.901 79.0377ZM109.02 83.2642C108.808 82.2712 108.79 82.1105 108.133 81.3485C107.964 81.1822 107.744 81.0777 107.509 81.052C106.736 80.9672 105.819 81.005 105.24 81.5037C104.957 82.4962 104.98 82.7027 105.021 83.7427C105.336 84.8397 105.107 84.6762 105.843 85.2515C106.475 85.2485 106.931 85.2442 107.558 85.1827C108.704 84.6277 108.482 84.545 109.02 83.2642Z" fill="#B91D1D"/>
<path d="M105.925 83.5186C106.099 83.0699 106.212 82.9971 106.531 82.6406C107.317 82.6544 107.371 82.8909 108.101 83.4321L109.02 83.2639C108.482 84.5446 108.704 84.6274 107.558 85.1824C107.06 84.4284 106.485 84.5851 105.925 83.5186Z" fill="#C1282A" fill-opacity="0.980392"/>
<path d="M105.24 81.5037C105.819 81.0049 106.736 80.9672 107.509 81.0519C107.744 81.0777 107.964 81.1822 108.133 81.3484C107.763 81.9927 107.984 82.6467 108.101 83.4324C107.371 82.8912 107.317 82.6547 106.531 82.6409C106.212 82.9974 106.099 83.0702 105.925 83.5189L105.735 83.4624L105.706 81.9174L105.24 81.5037Z" fill="#C1282A" fill-opacity="0.929412"/>
<path d="M105.021 83.7431C105.407 83.4201 105.191 83.5506 105.735 83.4629L105.925 83.5194C106.485 84.5859 107.06 84.4291 107.558 85.1831C106.931 85.2446 106.475 85.2489 105.843 85.2519C105.107 84.6766 105.336 84.8401 105.021 83.7431Z" fill="#C1282A" fill-opacity="0.619608"/>
<path d="M105.241 81.5039L105.707 81.9177L105.735 83.4627C105.192 83.5504 105.407 83.4199 105.021 83.7429C104.98 82.7029 104.957 82.4964 105.241 81.5039Z" fill="#C1282A" fill-opacity="0.870588"/>
<path d="M108.133 81.3486C108.79 82.1106 108.808 82.2714 109.02 83.2644L108.101 83.4326C107.984 82.6469 107.763 81.9929 108.133 81.3486Z" fill="#C1282A" fill-opacity="0.843137"/>
<path d="M250.225 245.738C255.815 246.049 255.535 255.488 249.029 255.22C246.684 254.085 246.006 252.943 244.596 250.788C246.028 248.366 247.485 246.55 250.225 245.738Z" fill="#B91D1D"/>
<path d="M231.335 67.9953L233.322 69.4311C233.908 71.6148 234.026 72.2991 233.658 74.5126C232.209 75.9383 230.956 77.2893 229.216 78.3658C227.5 76.6463 225.884 75.4293 225.815 72.8611C225.751 70.5001 227.11 69.4646 227.432 68.5278C229.155 67.9791 229.549 67.9628 231.335 67.9953Z" fill="#B91D1D"/>
<path d="M78.81 109.886C78.6055 109.733 78.4055 109.574 78.21 109.41C74.5383 106.349 74.8823 100.685 80.5865 100.65C83.6235 100.632 84.0835 104.218 83.7765 106.491C83.6203 107.647 82.5593 108.311 81.6773 108.955C80.7458 109.329 79.8015 109.766 78.81 109.886Z" fill="#B91D1D"/>
<path d="M215.861 61.7346C218.106 61.7576 219.935 63.5461 220.007 65.7906C220.079 68.0348 218.369 69.9373 216.13 70.1041C214.595 70.2186 213.12 69.4821 212.29 68.1858C211.459 66.8896 211.406 65.2423 212.152 63.8953C212.897 62.5483 214.322 61.7188 215.861 61.7346ZM215.838 67.3366C216.129 67.1723 216.24 66.8093 216.091 66.5106C215.943 66.2116 215.586 66.0813 215.28 66.2141C215.067 66.3066 214.922 66.5088 214.904 66.7403C214.885 66.9718 214.996 67.1946 215.192 67.3193C215.387 67.4443 215.636 67.4508 215.838 67.3366ZM215.794 64.6398L215.976 63.9803C215.592 63.5093 215.526 63.5453 214.951 63.3751L214.817 64.5073C215.392 64.7813 215.082 64.7038 215.794 64.6398Z" fill="#C1282A" fill-opacity="0.988235"/>
<path d="M215.279 66.215C215.586 66.0822 215.942 66.2125 216.091 66.5115C216.24 66.8102 216.129 67.1732 215.838 67.3375C215.636 67.4517 215.387 67.4452 215.191 67.3202C214.996 67.1955 214.885 66.9727 214.903 66.7412C214.922 66.5097 215.066 66.3075 215.279 66.215Z" fill="#C1282A" fill-opacity="0.819608"/>
<path d="M214.951 63.376C215.526 63.5462 215.592 63.5102 215.976 63.9812L215.794 64.6407C215.082 64.7047 215.392 64.7822 214.817 64.5082L214.951 63.376Z" fill="#C1282A" fill-opacity="0.92549"/>
<path d="M164.967 64.8941C161.876 62.4504 162.617 59.4499 165.554 57.2384C169.82 54.0259 174.889 62.5609 169.744 64.6354L170.269 63.7359C169.356 63.0486 165.7 64.0844 164.967 64.8941Z" fill="#C1282A" fill-opacity="0.172549"/>
<path d="M177.037 64.4588C178.804 62.1711 181.582 62.1066 184.126 62.7931L183.547 63.4666C184.303 64.3743 185.459 65.6263 185.595 66.7808C185.253 68.5928 181.993 71.3688 180.179 70.9038C177.895 70.3183 177.581 66.0541 177.037 64.4588Z" fill="#C1282A" fill-opacity="0.772549"/>
<path d="M223.407 267.513C226.216 268.118 226.391 269.085 227.476 271.6C226.629 273.793 226.158 276.068 223.63 276.7C217.981 275.305 218.041 269.763 223.407 267.513Z" fill="#B91D1D"/>
<path d="M202.866 274.962C204.143 274.887 206.661 278.587 207.286 279.577C206.311 282.332 205.736 282.97 203.38 284.695C196.981 282.462 198.488 278.267 202.866 274.962Z" fill="#B91D1D"/>
<path d="M86.1982 87.0283C87.9062 87.0243 89.92 87.9956 89.9835 89.9533C90.0685 92.5803 88.5402 94.0611 86.9375 95.8953C83.822 95.6731 81.9497 91.5088 83.4662 88.9086C84.2747 87.5223 84.784 87.5261 86.1982 87.0283Z" fill="#B91D1D"/>
<path d="M243.898 260.48C245.647 261.375 246.079 262.46 246.93 264.143C246.374 267.17 246.464 268.235 243.235 268.865C238.394 266.828 239.87 262.733 243.898 260.48Z" fill="#B91D1D"/>
<path d="M155.568 73.1011C158.508 69.4653 157.422 70.0493 161.83 67.5586C163.864 68.8783 165.38 70.5931 166.703 72.5913C166.195 72.9871 165.802 73.3008 165.02 73.1368C161.83 72.4683 158.856 73.1373 155.568 73.1011Z" fill="#C1282A" fill-opacity="0.988235"/>
<path d="M184.126 62.793C185.769 64.1762 186.446 65.341 187.125 67.3997C183.338 78.0012 173.553 71.013 177.037 64.4587C177.582 66.054 177.895 70.3182 180.179 70.9037C181.993 71.3687 185.254 68.5927 185.595 66.7807C185.459 65.6262 184.304 64.3742 183.547 63.4665L184.126 62.793Z" fill="#C1282A" fill-opacity="0.937255"/>
<path d="M56.1418 192.07C56.5985 191.993 57.0198 192.154 57.479 192.272C59.0135 193.525 58.764 195.899 58.1813 197.583C57.7968 198.694 56.9315 198.963 55.9428 199.357C54.132 198.717 53.1578 198.144 53.0243 196.121C52.8443 193.394 53.847 192.404 56.1418 192.07Z" fill="#B91D1D"/>
<path d="M182.197 283.893C182.833 283.96 184.106 284.768 184.512 285.26C186.552 287.738 184.741 289.793 183.137 291.305C182.511 291.67 181.76 291.378 181.192 291.048C179.323 288.76 180.085 285.753 182.197 283.893ZM182.911 288.32C183.172 288.3 183.4 288.135 183.503 287.893C183.605 287.653 183.565 287.375 183.399 287.173C183.233 286.968 182.968 286.875 182.712 286.928C182.347 287.003 182.104 287.348 182.156 287.718C182.209 288.085 182.54 288.35 182.911 288.32Z" fill="#B91D1D"/>
<path d="M182.712 286.928C182.969 286.875 183.233 286.968 183.399 287.173C183.565 287.375 183.605 287.653 183.503 287.893C183.4 288.135 183.172 288.3 182.911 288.32C182.54 288.35 182.209 288.085 182.156 287.718C182.104 287.348 182.347 287.003 182.712 286.928Z" fill="#B91D1D" fill-opacity="0.0588235"/>
<path d="M134.386 279.543L135.494 279.585C138.454 281.068 137.194 284.273 134.656 285.68C134.056 285.785 133.152 286.053 132.723 285.553C130.404 282.845 130.909 280.123 134.386 279.543Z" fill="#B91D1D"/>
<path d="M270.62 240.058C274.36 241.087 273.725 244.903 270.43 246.646C266.935 246.55 266.452 241.031 270.62 240.058Z" fill="#B91D1D"/>
<path d="M147.495 285.878C151.86 286.23 151.275 289.405 148.673 291.838C147.053 292.383 146.044 290.37 146.024 289.023C145.998 287.353 146.492 287.013 147.495 285.878Z" fill="#B91D1D"/>
<path d="M141.357 69.5331C138.93 63.8301 153.384 60.1333 152.213 68.7691L152.01 67.2446L151.934 66.5023C150.694 66.8888 145.784 67.4721 144.516 67.3266C145.444 66.0636 149.321 66.4723 150.109 65.0553C146.247 65.7356 143.073 63.1993 141.357 69.5331Z" fill="#C1282A" fill-opacity="0.105882"/>
<path d="M92.327 74.46C96.1068 75.3372 96.5935 77.9445 93.1033 79.8815C90.3478 80.4645 89.0753 76.9595 92.327 74.46ZM93.138 77.3537L93.2223 76.9007L92.7975 77.0607L92.6803 77.638L93.138 77.3537Z" fill="#B91D1D"/>
<path d="M92.7975 77.0614L93.2222 76.9014L93.138 77.3544L92.6802 77.6386L92.7975 77.0614Z" fill="#C1282A" fill-opacity="0.552941"/>
<path d="M131.429 73.502C133.804 77.0612 129.917 79.8702 127.541 81.9772C125.87 81.1202 123.97 79.972 123.052 78.2532C124.025 78.1902 124.154 78.2872 125.005 78.7852C125.61 79.0597 126.575 79.6222 127.192 79.955C132.537 75.7772 129.49 76.0142 131.429 73.502Z" fill="#C1282A" fill-opacity="0.921569"/>
<path d="M151.934 66.502L152.009 67.2442C150.798 67.8927 150.807 69.6805 148.798 71.3717C146.891 72.9362 146.161 71.661 144.038 71.5167L143.951 72.1337C143.619 71.9132 143.193 71.3385 142.914 71.0032L143.107 70.288C143.929 69.9047 144.827 70.4217 145.036 70.3045C147.247 69.068 150.132 68.2257 151.934 66.502Z" fill="#D52D29" fill-opacity="0.494118"/>
<path d="M123.642 73.0135C125.338 71.0257 126.855 70.2742 129.324 71.531C129.37 72.3562 129.49 72.7785 129.763 73.5595C127.876 76.9657 125.497 73.9155 123.642 73.0135Z" fill="#D52D29" fill-opacity="0.466667"/>
<path d="M130.848 72.7715L131.429 73.5022C129.49 76.0145 132.537 75.7775 127.192 79.9552C126.575 79.6225 125.61 79.06 125.005 78.7855L125.197 78.229C125.951 78.5922 125.655 78.5722 126.42 78.479L126.507 78.116C126.201 77.3412 126.04 77.0955 125.584 76.3932C126.864 75.9107 129.377 75.233 130.098 74.3422C130.321 73.644 130.426 73.3682 130.848 72.7715Z" fill="#C1282A" fill-opacity="0.682353"/>
<path d="M144.516 67.3262C145.784 67.4717 150.694 66.8885 151.934 66.502C150.132 68.2257 147.247 69.068 145.036 70.3045C144.827 70.4217 143.929 69.9047 143.107 70.288L142.914 71.0032L142.732 71.0564C141.846 68.8834 142.508 68.0237 144.516 67.3262Z" fill="#C14647" fill-opacity="0.364706"/>
<path d="M47.4292 172.479C48.2555 172.419 48.3397 172.371 49.0462 172.733C50.5112 174.362 50.333 176.03 48.9405 177.65C48.302 177.638 47.32 177.729 46.8547 177.233C45.4152 175.701 45.8952 173.789 47.4292 172.479Z" fill="#B91D1D"/>
<path d="M59.2743 110.448C60.469 110.654 61.188 110.796 61.7975 111.893C61.9848 113.517 61.1605 114.26 60.1738 115.602C57.4453 116.317 56.9405 112.596 59.2743 110.448Z" fill="#B91D1D"/>
<path d="M129.324 71.5303C129.908 71.9378 130.389 72.2193 130.848 72.7713C130.426 73.368 130.322 73.6438 130.098 74.342C129.377 75.2328 126.864 75.9105 125.584 76.393C126.04 77.0953 126.201 77.341 126.507 78.1158L126.42 78.4788C125.655 78.572 125.951 78.592 125.198 78.2288C123.474 76.3893 124.091 75.413 122.641 74.4873L123.642 73.0128C125.497 73.9148 127.876 76.965 129.764 73.5588C129.49 72.7778 129.37 72.3555 129.324 71.5303Z" fill="#D52D29" fill-opacity="0.592157"/>
<path d="M184.306 53.0783C185.98 52.0381 189.914 50.1531 190.78 53.0373L190.59 53.3188L190.078 52.8428L189.629 52.9158C189.163 53.6423 189.129 53.7948 188.849 54.6258L187.884 55.3478C186.754 55.1348 186.541 54.8981 185.7 54.1261L185.454 53.8976L184.8 54.0458L184.306 53.0783Z" fill="#D52D29" fill-opacity="0.160784"/>
<path d="M155.568 73.1006C158.856 73.1368 161.83 72.4678 165.02 73.1363C165.802 73.3003 166.195 72.9866 166.703 72.5908L167.442 73.9438C165.04 74.7346 165.436 73.4088 162.185 74.9203L161.636 74.9461C160.08 73.6118 157.31 73.6078 155.405 73.5803L155.568 73.1006Z" fill="#D52D29" fill-opacity="0.980392"/>
<path d="M262.42 255.587C263.125 255.005 263.227 254.897 264.122 254.755C264.947 254.912 264.995 254.9 265.545 255.49C265.99 256.282 265.895 256.572 265.845 257.5C265.442 258.405 265.392 258.602 264.587 259.152C263.472 259.33 263.24 259.332 262.422 258.46C262.207 257.482 262.337 256.58 262.42 255.587Z" fill="#870000"/>
<path d="M262.422 258.46C263.595 257.83 264.64 256.903 265.845 257.5C265.443 258.405 265.392 258.603 264.587 259.153C263.472 259.33 263.24 259.333 262.422 258.46Z" fill="#600000"/>
<path d="M262.42 255.587C263.125 255.005 263.228 254.897 264.123 254.755C264.948 254.912 264.995 254.9 265.545 255.49L265.353 256.085C263.745 255.865 263.75 256.37 262.42 255.587Z" fill="#600000"/>
<path d="M216.5 283.622C219.504 285.372 219.679 286.42 217.197 288.685C213.961 288.655 215.367 285.24 216.5 283.622Z" fill="#870000"/>
<path d="M141.357 69.5334C143.072 63.1997 146.247 65.7359 150.109 65.0557C149.321 66.4727 145.444 66.0639 144.516 67.3269C142.508 68.0244 141.846 68.8842 142.732 71.0572C141.695 70.3067 141.702 70.5569 141.357 69.5334Z" fill="#C1282A" fill-opacity="0.133333"/>
<path d="M203.973 59.5312L204.165 60.2717L204.747 60.0225C204.87 60.4152 204.944 60.6147 205.006 61.025C202.995 64.326 200.344 63.482 198.243 60.8702L198.543 59.8505L198.924 59.7537C199.529 60.1587 200.128 60.5722 200.721 60.9942C201.632 61.299 201.992 61.3587 202.932 61.0162C203.425 60.5142 203.608 60.139 203.973 59.5312Z" fill="#D52D29" fill-opacity="0.929412"/>
<path d="M236.485 276.048C239.128 276.553 238.896 279.228 237.699 281.085C236.801 281.043 236.606 281.073 235.92 280.518C235.146 279.063 235.973 277.883 236.485 276.048Z" fill="#870000"/>
<path d="M148.798 71.3716C149.583 71.3174 150.177 71.3061 150.946 71.1104C149.942 72.3896 148.221 73.7286 146.946 74.8056L143.951 72.1336L144.038 71.5166C146.161 71.6609 146.891 72.9361 148.798 71.3716Z" fill="#C1282A" fill-opacity="0.956863"/>
<path d="M66.143 96.5928L66.871 96.762C67.8083 97.6475 68.0898 100.355 66.6253 100.978C63.63 99.5708 63.9673 98.401 66.143 96.5928Z" fill="#B91D1D"/>
<path d="M199.438 56.5255C202.836 55.466 206.732 58.0332 205.006 61.0252C204.945 60.615 204.87 60.4155 204.747 60.0227L204.165 60.272L203.973 59.5315C203.681 58.1065 202.752 57.952 201.493 57.3322C200.857 57.2702 200.393 57.2055 199.764 57.089L199.438 56.5255Z" fill="#D52D29" fill-opacity="0.960784"/>
<path d="M236.353 56.4014C238.59 57.3909 238.018 59.5444 235.763 60.3921C233.794 58.7709 234.341 57.5059 236.353 56.4014Z" fill="#870000"/>
<path d="M196.265 292.603C196.78 292.473 197.325 292.628 197.693 293.01C198.062 293.393 198.196 293.945 198.044 294.453C197.893 294.963 197.48 295.353 196.962 295.47C196.175 295.653 195.387 295.168 195.196 294.383C195.005 293.598 195.482 292.803 196.265 292.603Z" fill="#600000"/>
<path d="M250.423 62.8525L251.008 63.0913C251.738 64.242 251.215 66.5628 250.188 67.492C248.937 65.4215 248.593 64.4255 250.423 62.8525Z" fill="#B91D1D"/>
<path d="M199.746 57.5693C201.178 59.1251 202.625 58.3141 202.09 60.4706C202.455 60.8601 202.428 60.8341 202.932 61.0166C201.992 61.3591 201.632 61.2993 200.722 60.9946C199.491 59.5851 199.34 59.4116 199.746 57.5693Z" fill="#D52D29" fill-opacity="0.0588235"/>
<path d="M164.968 64.8935C165.7 64.0837 169.356 63.048 170.269 63.7352L169.745 64.6347C167.77 65.263 166.871 65.859 164.968 64.8935Z" fill="#C1282A" fill-opacity="0.494118"/>
<path d="M222.277 50.1934L222.982 50.5584C223.883 51.8569 223.598 52.8304 222.493 53.8746L221.731 53.7101C220.733 52.5944 221.281 51.1089 222.277 50.1934Z" fill="#870000" fill-opacity="0.984314"/>
<path d="M122.641 74.4873C124.091 75.4131 123.474 76.3893 125.198 78.2288L125.006 78.7853C124.154 78.2873 124.026 78.1903 123.052 78.2533C122.897 78.0388 122.931 78.1016 122.797 77.8438C122.144 76.5848 122.217 75.7863 122.641 74.4873Z" fill="#D52D29" fill-opacity="0.721569"/>
<path d="M148.798 71.3716C150.807 69.6804 150.798 67.8926 152.009 67.2441L152.213 68.7686C151.844 69.6604 151.618 70.4369 150.946 71.1104C150.177 71.3061 149.583 71.3174 148.798 71.3716Z" fill="#D52D29" fill-opacity="0.839216"/>
<path d="M48.672 208.497C49.5188 208.461 49.8175 208.384 50.5885 208.672C51.0308 209.513 50.7243 210.156 50.569 211.282C48.8563 211.114 48.3668 210.196 48.672 208.497Z" fill="#B91D1D"/>
<path d="M198.243 60.8704C198.037 59.5024 198.586 57.6139 199.438 56.5254L199.764 57.0889C200.393 57.2054 200.857 57.2701 201.493 57.3321L199.746 57.5691C199.34 59.4114 199.491 59.5849 200.722 60.9944C200.128 60.5724 199.529 60.1589 198.924 59.7539L198.543 59.8506L198.243 60.8704Z" fill="#D52D29" fill-opacity="0.356863"/>
<path d="M207.253 260.718C209.528 259.043 210.148 259.4 212.214 261.223C211.686 261.243 208.477 260.768 207.253 260.718Z" fill="#C14647"/>
<path d="M188.849 54.6262L189.605 54.4902C189.891 54.8792 189.909 54.8525 189.991 55.3207C188.758 56.5842 188.446 56.5727 186.739 56.6797C186.608 55.962 186.574 56.2967 186.807 55.6357L187.884 55.3482L188.849 54.6262Z" fill="#D52D29" fill-opacity="0.803922"/>
<path d="M243.235 223.574C242.116 223.406 240.799 223.439 240.35 222.288L240.759 221.972C241.73 221.89 242.57 222.444 243.49 222.89L243.235 223.574Z" fill="#C14647" fill-opacity="0.988235"/>
<path d="M184.799 54.0457L185.454 53.8975L185.7 54.126C186.541 54.898 186.754 55.1347 187.884 55.3477L186.807 55.6352C186.574 56.2962 186.608 55.9615 186.739 56.6792C185.688 55.5787 185.406 55.4817 184.799 54.0457Z" fill="#D52D29" fill-opacity="0.341176"/>
<path d="M98.5537 62.1494C99.217 62.3569 99.2702 62.3967 99.8567 62.7824C99.967 63.6009 99.8597 63.4487 99.3942 64.3517C98.638 64.3337 98.9785 64.4424 98.3467 63.9859C98.1507 63.1607 98.2777 62.9972 98.5537 62.1494Z" fill="#B91D1D" fill-opacity="0.968627"/>
<path d="M209.048 73.1927C208.468 72.7787 207.573 72.2799 207.508 71.5664C208.537 71.6774 209.406 72.3517 210.289 72.9164L209.048 73.1927Z" fill="#99527E" fill-opacity="0.898039"/>
<path d="M188.849 54.6258C189.129 53.7948 189.163 53.6423 189.629 52.9158L190.078 52.8428L190.59 53.3188L189.992 55.3203C189.909 54.852 189.891 54.8788 189.605 54.4898L188.849 54.6258Z" fill="#D52D29" fill-opacity="0.537255"/>
<path d="M181.607 83.3096L182.577 83.7513C182.06 84.2698 181.856 84.6063 181.178 84.7161L181.048 84.3406L181.607 83.3096Z" fill="#C14647" fill-opacity="0.054902"/>
<path d="M185.549 265.735L186.593 266.113L186.864 266.695C186.223 266.873 185.903 266.175 185.549 265.735Z" fill="#C14647" fill-opacity="0.0941176"/>
</svg>
