<svg preserveAspectRatio="xMidYMid meet" overflow="visible" style="display: block;" viewBox="0 0 998.634 913.929" fill="none" xmlns="http://www.w3.org/2000/svg">
<g id="beausejour-icon" clip-path="url(#clip0_0_6)">
<path id="Vector" d="M955.39 3.77748e-05H713.801C764.356 49.8872 783.794 117.34 783.794 190.81C783.794 343.147 663.2 475.733 496.91 475.733C334.186 475.733 215.018 346.49 215.018 192.861C215.018 116.002 244.086 47.2122 287.91 3.77748e-05H43.9132C16.1833 55.237 0.17838 119.39 0.17838 190.81C0.17838 418.089 199.103 662.487 495.483 662.487C783.705 662.487 996.583 442.119 996.583 198.835C996.583 127.415 981.827 59.2939 955.479 -0.222872L955.39 3.77748e-05Z" fill="var(--fill-0, white)" fill-opacity="0.09"/>
<path id="Vector_2" d="M499.317 761.459C345.064 761.459 228.527 819.37 132.052 914.018H872.557C777.419 818.702 668.862 761.459 499.451 761.459H499.317Z" fill="var(--fill-0, white)" fill-opacity="0.09"/>
</g>
<defs>
<clipPath id="clip0_0_6">
<rect width="998.634" height="913.929" fill="white"/>
</clipPath>
</defs>
</svg>
