<svg preserveAspectRatio="none" width="100%" height="100%" overflow="visible" style="display: block;" viewBox="0 0 18 18" fill="none" xmlns="http://www.w3.org/2000/svg">
<g id="Frame">
<path id="Vector" d="M10.2133 16.0253C9.88808 16.3298 9.4533 16.5 9.00083 16.5C8.54835 16.5 8.11365 16.3298 7.78838 16.0253C4.80977 13.2195 0.81807 10.0852 2.7647 5.53476C3.81722 3.07438 6.34376 1.50001 9.00083 1.50001C11.6579 1.50001 14.1845 3.07438 15.237 5.53476C17.1812 10.0795 13.1993 13.2292 10.2133 16.0253Z" stroke="var(--stroke-0, black)" stroke-width="1.125"/>
<path id="Vector_2" d="M11.6248 8.25C11.6248 9.69975 10.4496 10.875 8.99982 10.875C7.55007 10.875 6.37482 9.69975 6.37482 8.25C6.37482 6.80025 7.55007 5.625 8.99982 5.625C10.4496 5.625 11.6248 6.80025 11.6248 8.25Z" stroke="var(--stroke-0, black)" stroke-width="1.125"/>
</g>
</svg>
